<?xml version="1.0" standalone="no"?>
<!DOCTYPE svg PUBLIC "-//W3C//DTD SVG 1.1//EN" "http://www.w3.org/Graphics/SVG/1.1/DTD/svg11.dtd" >
<svg xmlns="http://www.w3.org/2000/svg">
<metadata></metadata>
<defs>
<font id="pf_din_text_cond_proitalic" horiz-adv-x="901" >
<font-face units-per-em="2048" ascent="1536" descent="-512" />
<missing-glyph horiz-adv-x="430" />
<glyph unicode="&#xfb01;" horiz-adv-x="882" d="M6 -307l227 1184h-112l26 137h113l37 184q33 170 125 237.5t221 67.5q104 0 178 -34.5t115 -94.5l-123 -114q-25 37 -69 61.5t-107 24.5q-78 0 -121 -44.5t-57 -113.5l-33 -174h453l-197 -1014h-164l170 877h-289l-229 -1184h-164z" />
<glyph unicode="&#xfb02;" horiz-adv-x="931" d="M8 -307l225 1184h-112l26 137h113l37 184q33 166 123 237.5t227 71.5q41 0 126 -11t190 -52l-230 -1174q-4 -12 -4 -22v-21q0 -37 20.5 -58.5t65.5 -21.5h33l-31 -153h-26q-102 0 -169 40t-67 136q0 39 6 76l213 1077q-29 14 -65.5 20.5t-63.5 6.5q-82 0 -126 -40 t-58 -118l-35 -178h186l-26 -137h-187l-227 -1184h-164z" />
<glyph horiz-adv-x="0" />
<glyph horiz-adv-x="682" />
<glyph unicode=" "  horiz-adv-x="430" />
<glyph unicode="&#x09;" horiz-adv-x="430" />
<glyph unicode="&#xa0;" horiz-adv-x="430" />
<glyph unicode="!" horiz-adv-x="481" d="M72 0l37 182h174l-37 -182h-174zM164 362l190 1063h162l-223 -1063h-129z" />
<glyph unicode="&#x22;" horiz-adv-x="573" d="M217 1020l80 405h127l-80 -405h-127zM459 1020l80 405h127l-80 -405h-127z" />
<glyph unicode="#" d="M25 0l159 451h-157l22 112h176l109 309h-158l23 113h176l157 442h117l-157 -442h204l158 442h117l-160 -442h166l-23 -113h-182l-110 -309h165l-22 -112h-184l-158 -451h-117l158 451h-205l-158 -451h-116zM340 563h205l110 309h-204z" />
<glyph unicode="$" d="M31 248l139 74q20 -59 62 -111.5t118 -63.5q27 129 51.5 255t49.5 255q-113 53 -185.5 125t-72.5 191q0 100 30.5 181t83.5 139.5t128 92t165 39.5l33 164h90q-10 -41 -17.5 -84t-15.5 -84q61 -6 107.5 -28.5t80 -56t54 -73.5t26.5 -83q-35 -18 -69.5 -37t-67.5 -37 q-8 25 -19 51.5t-30.5 48t-46.5 36.5t-66 22l-92 -467q61 -29 113.5 -57.5t89.5 -65.5t57.5 -85t20.5 -114q0 -111 -32 -200t-89 -151.5t-138 -97t-179 -38.5q-10 -51 -19.5 -101.5t-19.5 -101.5h-90l41 207q-127 12 -193 85t-98 171zM367 991q0 -53 32.5 -90t85.5 -65 q20 109 41 215t43 215q-47 -8 -85 -35t-64.5 -65t-39.5 -84t-13 -91zM440 145q111 16 171.5 98t60.5 199q0 68 -42 109t-95 70q-25 -121 -47.5 -238t-47.5 -238z" />
<glyph unicode="%" horiz-adv-x="1310" d="M106 -35l1049 1495h127l-1051 -1495h-125zM115 805l78 407q20 100 84.5 160t162.5 60q51 0 95.5 -17.5t73 -50.5t41 -77t1.5 -97l-76 -408q-20 -102 -77.5 -160.5t-167.5 -58.5q-47 0 -91 16.5t-76 47t-46.5 76t-1.5 102.5zM244 795q-10 -47 12.5 -81t79.5 -34 q53 0 77.5 30.5t32.5 71.5l80 420q10 43 -17.5 77t-76.5 34q-47 0 -74.5 -29t-35.5 -72zM735 231l78 408q20 100 85 159.5t163 59.5q51 0 95 -17.5t72.5 -50t41 -76.5t2.5 -98l-76 -407q-20 -102 -77.5 -160.5t-168.5 -58.5q-47 0 -91 16.5t-75.5 47t-46 75.5t-2.5 102z M864 221q-10 -47 12.5 -81t79.5 -34q53 0 78 31t33 72l80 420q10 43 -17.5 76.5t-76.5 33.5q-47 0 -75 -28.5t-36 -71.5z" />
<glyph unicode="&#x26;" horiz-adv-x="1028" d="M66 289q0 145 82.5 265t232.5 218q-18 61 -49 142t-31 184q0 70 24.5 132t70.5 108t110.5 73t144.5 27q90 0 162 -36t111 -116l-131 -82q-23 51 -63 70.5t-95 19.5q-43 0 -75 -17t-53.5 -45t-31.5 -62.5t-10 -69.5q0 -90 47 -215q18 -49 46 -112.5t57.5 -129t57 -128 t46.5 -112.5q35 51 55.5 106.5t38.5 108.5l145 -6q-23 -84 -66.5 -182t-103.5 -182l115 -248h-182l-57 123q-86 -78 -159 -106.5t-159 -28.5q-127 0 -203.5 82t-76.5 219zM225 301q0 -72 37 -120t115 -48q59 0 124.5 34t108.5 79l-170 393q-113 -82 -164 -166t-51 -172z" />
<glyph unicode="'" horiz-adv-x="423" d="M262 1020l78 405h127l-78 -405h-127z" />
<glyph unicode="(" horiz-adv-x="505" d="M104 393q0 156 41 308.5t112 293t162 264t193 224.5l76 -47q-94 -113 -172 -242t-134 -267.5t-87 -284.5t-31 -294q0 -141 27.5 -276t81.5 -252l-88 -56q-82 135 -131.5 294t-49.5 335z" />
<glyph unicode=")" horiz-adv-x="505" d="M-80 -180q90 106 168 235t134.5 269.5t88 288t31.5 292.5q0 139 -28.5 275.5t-82.5 253.5q23 12 46.5 24t48.5 23q80 -133 128 -288t48 -331q0 -158 -41 -311.5t-111.5 -294.5t-164 -266t-197.5 -226z" />
<glyph unicode="*" horiz-adv-x="729" d="M195 1151q4 8 12 25.5t18.5 37t19.5 37t13 27.5l201 -92q2 14 6 49t9 73t8 71.5t5 50.5h131l-67 -244q14 6 48 18.5t70 26.5t68.5 27.5t48.5 19.5q0 -10 3.5 -27.5t6.5 -37t6 -37t3 -25.5l-242 -59l121 -187q-8 -6 -25.5 -17t-36 -22.5t-36 -23t-25.5 -17.5l-86 209 q-10 -12 -33.5 -41.5t-49 -62.5t-49.5 -62.5t-34 -44.5q-6 6 -19.5 17.5t-27.5 24t-27.5 22.5t-19.5 16l195 189q-14 4 -44 12t-64 17t-64.5 17.5t-42.5 12.5z" />
<glyph unicode="+" d="M61 539l25 127h348l72 362h125l-70 -362h348l-24 -127h-348l-72 -365h-125l70 365h-349z" />
<glyph unicode="," horiz-adv-x="456" d="M-12 -238l102 230h-51l41 213h194l-41 -209l-149 -234h-96z" />
<glyph unicode="-" horiz-adv-x="755" d="M117 494l28 145h562l-29 -145h-561z" />
<glyph unicode="." horiz-adv-x="446" d="M43 0l39 207h194l-38 -207h-195z" />
<glyph unicode="/" horiz-adv-x="587" d="M-117 -86l750 1571h129l-754 -1571h-125z" />
<glyph unicode="0" d="M68.5 210q-17.5 73 1.5 165l139 723q33 164 130 252t249 88q68 0 129 -23.5t104 -70t62.5 -114t3.5 -155.5l-142 -749q-29 -152 -116.5 -245t-257.5 -93q-74 0 -137.5 25.5t-105.5 74.5t-59.5 122zM233 367q-20 -109 21 -164.5t127 -55.5q45 0 80 16.5t58.5 42t37.5 57.5 t21 63l147 753q16 84 -30 141.5t-126 57.5t-130 -47t-66 -133z" />
<glyph unicode="1" d="M309 0l244 1251l-223 -149l35 176l219 147h166l-277 -1425h-164z" />
<glyph unicode="2" d="M-8 0l28 156l603 716q53 68 81.5 134.5t28.5 121.5q0 61 -38 105.5t-120 44.5q-72 0 -132 -56.5t-83 -160.5l-163 31q39 162 144 253t257 91q133 0 219 -72t86 -215q2 -106 -44 -191.5t-109 -162.5l-531 -637h483l-30 -158h-680z" />
<glyph unicode="3" d="M-8 260v29l168 24v-22q0 -72 36.5 -112t108.5 -40t120 31t77.5 80t42 110.5t12.5 122.5q0 80 -39 132.5t-137 52.5h-68l29 145h76q57 0 103 25.5t79 68.5t49.5 99.5t16.5 119.5q0 59 -34 106.5t-112 47.5q-66 0 -125 -44t-82 -144l-159 28q18 80 54 139.5t87 98.5 t113.5 58.5t130.5 19.5q147 0 222 -77t75 -190q0 -55 -9.5 -115.5t-35 -118.5t-69.5 -109.5t-114 -88.5q68 -35 91.5 -98.5t23.5 -116.5q0 -76 -16.5 -169t-63.5 -175t-131 -137t-219 -55q-59 0 -114.5 15t-96.5 48t-65.5 85t-24.5 126z" />
<glyph unicode="4" d="M23 221l30 156l592 1048h170l-592 -1052h340l78 407h162l-78 -407h106l-28 -152h-109l-43 -221h-159l40 221h-509z" />
<glyph unicode="5" d="M57 289l168 24q0 -84 31 -129t123 -45q90 0 138 58.5t71 150.5q16 66 33.5 145.5t17.5 145.5q0 68 -30.5 108.5t-112.5 40.5q-51 0 -99.5 -27.5t-83.5 -74.5h-153l143 739h649l-30 -155h-498l-80 -412h4q53 43 109.5 60.5t111.5 17.5q63 0 109.5 -19.5t74 -53.5t41 -80 t13.5 -99q0 -61 -8 -121.5t-19 -120.5q-45 -272 -172 -381q-88 -76 -250 -75q-68 0 -124 18.5t-96 55t-62.5 94t-18.5 135.5z" />
<glyph unicode="6" d="M74 276q0 43 7 97.5t22.5 113t39 115.5t54.5 107l465 716h174q-147 -238 -242 -386t-158 -242l4 -4q29 16 67 25t68 9q61 0 103.5 -20.5t69 -56t39 -82.5t12.5 -99q0 -18 -3 -52t-10.5 -77t-19.5 -92t-29 -96q-92 -264 -366 -264q-76 0 -131.5 22.5t-92 61.5t-55 91 t-18.5 113zM246 307q0 -33 6 -63.5t22.5 -53t43 -37t69.5 -14.5q72 0 118 37t68 96q29 82 42.5 154t13.5 106q0 63 -33 105.5t-111 42.5q-76 0 -123 -43t-69 -100q-20 -49 -33.5 -112t-13.5 -118z" />
<glyph unicode="7" d="M66 0l669 1270h-358l-37 -193h-154l68 348h684l-29 -153l-673 -1272h-170z" />
<glyph unicode="8" d="M53 285q0 27 6.5 91t30 137t69.5 137.5t126 92.5q-45 33 -70 84.5t-25 110.5q0 41 9.5 93t36.5 136q41 131 137 201t231 70q141 0 218 -83t77 -212q-2 -39 -12 -99.5t-35 -122t-66 -111.5t-102 -69q31 -16 51.5 -41.5t32.5 -56.5t17.5 -61.5t5.5 -55.5t-3.5 -59.5 t-11.5 -75.5t-19.5 -83t-27.5 -81q-43 -104 -129 -171.5t-229 -67.5q-63 0 -120.5 18.5t-102 56t-70 93t-25.5 129.5zM217 326q0 -27 5 -60t21.5 -60.5t48.5 -47t85 -19.5q37 0 64.5 10.5t49 25.5t37 32.5t25.5 34.5q16 27 29.5 60.5t21.5 67t13.5 64.5t7.5 51 q0 78 -35 132.5t-121 54.5q-74 0 -123 -39t-77.5 -94.5t-40 -114.5t-11.5 -98zM356 942q0 -59 42 -94t102 -35q86 0 138 55.5t75 132.5q10 31 15 64t5 65q0 68 -40.5 111t-112.5 43q-53 0 -89 -20.5t-61 -53.5q-18 -25 -27.5 -52.5t-19.5 -57.5q-12 -41 -19.5 -83t-7.5 -75z " />
<glyph unicode="9" d="M109 0q74 119 133 214t107 172t87 136.5t72 106.5l-4 4q-29 -16 -67 -25.5t-68 -9.5q-61 0 -103.5 20.5t-69 56.5t-39 82t-12.5 99q0 18 3.5 52t10.5 77t19 92t29 97q92 264 366 264q76 0 131.5 -22.5t92.5 -61.5t55 -91.5t18 -113.5q0 -43 -8 -97.5t-23.5 -112.5 t-38 -115.5t-52.5 -106.5l-465 -717h-174zM315 893q0 -63 33 -105.5t111 -42.5q76 0 123 43t69 101q20 49 33.5 111.5t13.5 117.5q0 33 -6 63.5t-22.5 53t-43 37t-69.5 14.5q-72 0 -118 -37t-68 -96q-29 -82 -42.5 -153.5t-13.5 -106.5z" />
<glyph unicode=":" horiz-adv-x="442" d="M37 0l39 207h194l-39 -207h-194zM154 598l39 209h194l-39 -209h-194z" />
<glyph unicode=";" horiz-adv-x="442" d="M-14 -238l102 230h-49l41 213h194l-41 -209l-149 -234h-98zM156 598l41 209h194l-41 -209h-194z" />
<glyph unicode="&#x3c;" d="M80 545l22 117l859 395l-25 -148l-698 -313l577 -313l-31 -131z" />
<glyph unicode="=" d="M27 360l26 134h824l-27 -134h-823zM96 715l25 133h823l-24 -133h-824z" />
<glyph unicode="&#x3e;" d="M4 152l29 147l696 311l-575 314l26 133l707 -395l-23 -117z" />
<glyph unicode="?" horiz-adv-x="888" d="M197 1083q47 184 147 268.5t270 84.5q147 0 240.5 -82t93.5 -226q0 -66 -11 -113.5t-32.5 -87.5t-52.5 -76t-68 -77q-29 -33 -61.5 -65.5t-63 -66.5t-54 -70.5t-36.5 -79.5l-24 -123h-170q16 98 42.5 181t100.5 157q51 61 97.5 109t81 91t55 86t20.5 97q0 78 -40 131 t-136 53q-102 0 -160.5 -66.5t-68.5 -158.5q-43 10 -85 18t-85 16zM301 0l37 182h172l-37 -182h-172z" />
<glyph unicode="@" horiz-adv-x="1617" d="M152 514q0 199 61 369t173 293.5t267.5 194.5t341.5 71q137 0 246 -41t184.5 -114t115.5 -174t40 -222q0 -170 -40 -289t-103.5 -194.5t-139 -109.5t-149.5 -34q-23 0 -52.5 5t-58 18.5t-50 35t-27.5 54.5h-7q-35 -43 -92 -73t-123 -30q-86 0 -149.5 52.5t-63.5 156.5 q0 57 8.5 130t26.5 153q35 143 108.5 231t209.5 88q41 0 88 -20.5t77 -63.5l3 3q4 18 7 36.5t7 36.5h135l-111 -575q-10 -47 9.5 -80t64.5 -33q49 0 100.5 27.5t93.5 87t68.5 155t26.5 228.5q0 104 -36 185t-97.5 137.5t-144.5 85t-177 28.5q-166 0 -297 -63.5t-221 -172 t-138 -251t-48 -299.5q0 -229 119.5 -364.5t367.5 -135.5q98 0 191.5 21.5t201.5 70.5q10 -29 19.5 -58.5t19.5 -58.5q-104 -41 -215.5 -66.5t-224.5 -25.5q-143 0 -257 39t-193.5 115t-122.5 186.5t-43 253.5zM668 541q0 -57 23 -95t95 -38q61 0 103.5 45t68 111.5t36 140 t10.5 129.5q0 55 -28 87.5t-87 32.5q-41 0 -78 -16t-63 -59q-66 -109 -80 -338z" />
<glyph unicode="A" horiz-adv-x="1005" d="M-66 0l687 1425h153l133 -1425h-170l-22 324h-453l-149 -324h-179zM330 477h375l-29 369l-23 325h-6l-141 -321z" />
<glyph unicode="B" horiz-adv-x="1024" d="M47 0l279 1425h381q160 0 248.5 -72.5t88.5 -226.5q0 -158 -65 -252t-188 -133q0 -2 -1.5 -3t-1.5 -3q86 -29 122 -100.5t36 -169.5q-8 -133 -52 -222t-114.5 -143.5t-163 -77t-196.5 -22.5h-373zM246 156h254q68 0 121 27.5t87.5 72.5t53 104.5t18.5 122.5 q0 88 -53 135.5t-149 47.5h-232q-25 -129 -49.5 -255t-50.5 -255zM375 813h164q68 0 129 14.5t108 48t75 89t28 135.5q0 88 -57.5 130t-149.5 42h-207z" />
<glyph unicode="C" horiz-adv-x="960" d="M94 328q0 39 10.5 109.5t22.5 135.5q16 86 34.5 174.5t35.5 174.5q18 96 48.5 188t85 165t138.5 117t209 44q176 0 264 -86t96 -228l-172 -51q0 92 -49 147.5t-141 55.5q-68 0 -114 -19.5t-77.5 -52.5t-52 -74t-35.5 -84q-35 -117 -56.5 -242.5t-45.5 -248.5 q-10 -49 -19.5 -102.5t-9.5 -98.5t9.5 -82t32 -64.5t59 -43t94.5 -15.5q96 0 167.5 54.5t106.5 158.5l164 -63q-53 -150 -165.5 -229.5t-278.5 -79.5q-184 0 -272.5 95t-88.5 245z" />
<glyph unicode="D" horiz-adv-x="1054" d="M47 0l277 1425h374q166 0 265.5 -75.5t99.5 -237.5q0 -63 -14.5 -174t-36.5 -233q-12 -74 -27.5 -148t-32 -138.5t-33 -114.5t-30.5 -79q-76 -135 -180.5 -180t-233.5 -45h-428zM246 156h211q86 0 143 21.5t96 61.5t60.5 97t36.5 129l67 350q6 31 12.5 68t11.5 70.5t9 62 t4 43.5q1 10 1 20q0 83 -46 133q-51 56 -178 56h-211q-53 -281 -107.5 -556.5t-109.5 -555.5z" />
<glyph unicode="E" horiz-adv-x="919" d="M49 0l277 1425h747l-33 -157h-577l-90 -469h495l-28 -154h-496l-96 -487h577l-28 -158h-748z" />
<glyph unicode="F" d="M49 0l277 1425h747l-33 -157h-577l-90 -475h495l-30 -154h-496l-123 -639h-170z" />
<glyph unicode="G" horiz-adv-x="1024" d="M78 328q0 39 10 109.5t23 135.5q16 86 34.5 174.5t34.5 174.5q18 96 49 188t85.5 165t138.5 117t209 44q176 0 264 -86t96 -228l-172 -51q0 92 -49 147.5t-142 55.5q-68 0 -113.5 -19.5t-77.5 -52.5t-52.5 -74t-34.5 -84q-35 -117 -56.5 -242.5t-45.5 -248.5 q-10 -49 -19.5 -102.5t-9.5 -98.5t9 -83t31.5 -65.5t62.5 -43t100 -15.5q82 0 137 32t91 83t56.5 116.5t32.5 133.5l21 104h-230l29 152h403l-55 -277q-23 -106 -57.5 -198t-92 -160t-142.5 -105.5t-208 -37.5q-184 0 -272 95t-88 245z" />
<glyph unicode="H" horiz-adv-x="1075" d="M49 0l277 1425h170l-123 -626h475l123 626h168l-277 -1425h-168l125 649h-475l-125 -649h-170z" />
<glyph unicode="I" horiz-adv-x="438" d="M51 0l279 1425h170l-277 -1425h-172z" />
<glyph unicode="J" horiz-adv-x="821" d="M-43 133l131 98q25 -39 70 -63.5t92 -24.5q94 0 161.5 51.5t96.5 186.5l203 1044h170l-205 -1052q-23 -109 -60.5 -182.5t-93 -118.5t-125 -64.5t-151.5 -19.5q-98 0 -173 37.5t-116 107.5z" />
<glyph unicode="K" horiz-adv-x="1044" d="M47 0l279 1425h168l-138 -720h4l252 299l363 421h192l-473 -565l250 -860h-178q-49 178 -100.5 354t-100.5 355l-270 -308l-78 -401h-170z" />
<glyph unicode="L" horiz-adv-x="892" d="M49 0l277 1425h170l-248 -1267h561l-29 -158h-731z" />
<glyph unicode="M" horiz-adv-x="1329" d="M49 0l277 1425h168l122 -551l72 -329h6l201 334l336 546h174l-279 -1425h-168l193 993h-8l-164 -274l-281 -440h-114l-109 448l-57 266h-6l-193 -993h-170z" />
<glyph unicode="N" horiz-adv-x="1136" d="M45 0l279 1425h163l248 -757l94 -291h7l202 1048h168l-276 -1425h-162l-254 774l-90 285h-6l-203 -1059h-170z" />
<glyph unicode="O" horiz-adv-x="1017" d="M96 273q-5 36 -5 74q0 48 9 99l111 566q14 72 44 147.5t84 137t135 100.5t196 39q111 0 186.5 -39t119.5 -100.5t58 -138.5q7 -38 8 -76q0 -39 -8 -78l-104 -588q-39 -207 -153.5 -317.5t-301.5 -110.5q-117 0 -196.5 37.5t-125 101t-57.5 146.5zM262 332q4 -53 26.5 -95 t68.5 -67t120 -25q109 0 181.5 68t95.5 186l116 605q4 22 4 50q0 14 -1 28q-3 46 -25.5 89t-70.5 73t-132 30q-70 0 -117 -27.5t-78.5 -67.5t-48 -87.5t-24.5 -85.5l-107 -564q-9 -43 -9 -83q0 -14 1 -27z" />
<glyph unicode="P" horiz-adv-x="978" d="M49 0l277 1425h393q164 0 255 -79.5t91 -233.5q0 -115 -30.5 -213t-92 -171t-153 -114t-209.5 -41h-250l-111 -573h-170zM360 733h228q76 0 133 26.5t95 73t56.5 107.5t18.5 133q0 92 -52.5 143.5t-158.5 51.5h-217z" />
<glyph unicode="Q" horiz-adv-x="1024" d="M90 340q0 53 9.5 118.5t22.5 136.5t28.5 142.5t27.5 134.5q25 121 58.5 224.5t89 178.5t137.5 118t205 43q90 0 159.5 -27t116.5 -74t70.5 -112.5t23.5 -145.5q0 -53 -9 -116.5t-21.5 -131t-27.5 -137t-28 -133.5q-14 -61 -25.5 -119.5t-29.5 -115.5q-25 -80 -61 -142 l110 -106l-108 -111l-107 101q-53 -39 -120.5 -58.5t-157.5 -19.5q-98 0 -167 26.5t-112 74.5t-63.5 112.5t-20.5 138.5zM256 373q0 -49 8 -91t31.5 -73t63.5 -48.5t104 -17.5q45 0 86 10.5t63 26.5l-145 142l113 108l131 -127q25 51 41 110.5t28 118.5q12 63 27.5 132 t29 136.5t22.5 131t9 117.5q0 98 -50 163.5t-171 65.5q-96 0 -150.5 -48t-82.5 -116q-18 -47 -38 -113.5t-37 -142.5t-32.5 -151.5t-27 -143t-17.5 -118t-6 -72.5z" />
<glyph unicode="R" horiz-adv-x="1024" d="M49 0l277 1425h424q160 0 242 -90q74 -80 74 -218q0 -17 -1 -34q-10 -174 -91 -279.5t-229 -152.5l148 -651h-184l-134 627h-235l-121 -627h-170zM369 776h245q119 0 197 81t84 214q1 13 1 25q0 82 -47 126q-54 50 -161 50h-223z" />
<glyph unicode="S" horiz-adv-x="966" d="M35 246l160 80q29 -72 87 -123t169 -51q74 0 126 25.5t85.5 66.5t50 91t16.5 101q0 47 -13.5 80t-39 55.5t-63.5 40t-87 33.5q-90 29 -151.5 60.5t-100 71.5t-56 89t-17.5 115q0 104 31.5 189t92 144.5t144.5 91.5t188 32q72 0 130.5 -18.5t102.5 -50.5t73.5 -72 t44.5 -83l-154 -92q-27 72 -86 111t-135 39q-61 0 -108.5 -21.5t-79 -57.5t-48 -84t-16.5 -101q0 -51 20.5 -84t56.5 -56.5t86 -41t109 -38.5q147 -51 206 -129.5t59 -199.5q0 -100 -32 -187.5t-94.5 -151t-153.5 -99t-208 -35.5q-166 0 -264 71.5t-131 188.5z" />
<glyph unicode="T" horiz-adv-x="815" d="M166 1272l31 153h811l-31 -153h-320l-247 -1272h-168l245 1272h-321z" />
<glyph unicode="U" horiz-adv-x="1050" d="M114 271q-2 27 -3 55q0 55 10 112q20 111 46 243t51.5 266t49 258t41.5 220h168q-18 -92 -42.5 -220t-51.5 -266t-52.5 -270t-43.5 -233q-11 -52 -11 -102q0 -48 18 -87q18 -40 58.5 -64.5t108.5 -24.5q80 0 135 27.5t92 74.5t58.5 109.5t33.5 130.5l181 925h169 q-47 -238 -92 -471t-90 -469q-18 -106 -55 -197t-95.5 -158t-141.5 -104.5t-195 -37.5q-121 0 -193.5 37.5t-109 101t-44.5 144.5z" />
<glyph unicode="V" horiz-adv-x="950" d="M221 1425h172l33 -710l16 -404h11q12 25 36.5 83.5t51 125t51 126t37.5 83.5l301 696h186l-649 -1425h-160z" />
<glyph unicode="W" horiz-adv-x="1421" d="M231 0v1425h172l-12 -542l-16 -514h8l180 432l260 624h154l16 -637l13 -423h8l135 401l244 659h180l-555 -1425h-154l-16 643l-12 447h-7l-178 -441l-266 -649h-154z" />
<glyph unicode="X" horiz-adv-x="911" d="M-70 0l502 739l-199 686h177l135 -528l342 528h188l-469 -686l217 -739h-176l-151 578l-377 -578h-189z" />
<glyph unicode="Y" horiz-adv-x="894" d="M209 1425h166l98 -481q8 -29 17.5 -73t17.5 -78l10 -2l148 251q55 98 111.5 192.5t111.5 190.5h182l-510 -829l-117 -596h-163l116 596q-47 209 -94 415t-94 414z" />
<glyph unicode="Z" horiz-adv-x="835" d="M-29 0l31 158l766 1114h-526l30 153h707l-29 -147l-766 -1122h547l-29 -156h-731z" />
<glyph unicode="[" horiz-adv-x="477" d="M14 -211l320 1641h307l-23 -109h-161l-277 -1423h162l-20 -109h-308z" />
<glyph unicode="\" horiz-adv-x="540" d="M184 1460h127l105 -1509h-127z" />
<glyph unicode="]" horiz-adv-x="477" d="M-80 -213l19 111h161l277 1423h-162l23 109h305l-320 -1643h-303z" />
<glyph unicode="^" d="M86 680l508 741h115l221 -741h-135l-170 592l-398 -592h-141z" />
<glyph unicode="_" horiz-adv-x="1013" d="M-133 -266l24 125h1012l-24 -125h-1012z" />
<glyph unicode="`" horiz-adv-x="868" d="M442 1477l138 57l147 -369l-88 -39z" />
<glyph unicode="a" horiz-adv-x="915" d="M74 291q0 55 8 117.5t18 115.5q20 102 51 193.5t78 159t115 107.5t160 40q68 0 125 -27.5t88 -81.5q2 0 2 1.5t2 1.5l20 96h160l-196 -1014h-162l18 94q-2 0 -3 1t-3 1q-51 -57 -101.5 -82.5t-134.5 -25.5q-125 0 -185 82t-60 221zM244 326q0 -35 6 -67t22.5 -56.5 t44 -38.5t72.5 -14q72 0 120 48t71 105q18 47 34.5 101.5t27.5 106.5t18.5 101.5t7.5 87.5q0 76 -36 119t-110 43q-49 0 -91 -21.5t-75 -72.5q-25 -37 -46 -104.5t-38 -141.5q-12 -59 -20 -109.5t-8 -86.5z" />
<glyph unicode="b" horiz-adv-x="878" d="M18 0l289 1487h162l-113 -580h4q49 53 117 84t141 31q127 0 179.5 -74t52.5 -188q0 -25 -3 -61.5t-9.5 -81t-14.5 -90.5t-16 -89q-18 -86 -48 -167t-76 -143t-112.5 -101t-156.5 -39q-78 0 -128 26.5t-83 81.5q-2 0 -2 -1t-2 -1l-21 -94h-160zM252 289q0 -59 33.5 -101.5 t105.5 -42.5q63 0 106.5 29t72 78t48 113.5t35.5 136.5q12 53 19.5 108.5t7.5 89.5q0 82 -34 122t-116 40q-80 0 -130 -53t-74 -121q-33 -92 -53.5 -197.5t-20.5 -201.5z" />
<glyph unicode="c" horiz-adv-x="780" d="M59 303q0 59 8.5 118.5t18.5 119.5q18 96 52 184t89.5 154.5t133 106.5t182.5 40q109 0 186.5 -55.5t93.5 -159.5l-151 -74q-10 68 -49 100.5t-99 32.5q-63 0 -109 -28.5t-79 -76.5t-54.5 -110.5t-33.5 -128.5q-10 -47 -16.5 -95t-6.5 -91q0 -102 37 -149.5t129 -47.5 q59 0 111.5 35t79.5 94l139 -77q-51 -88 -141 -147.5t-215 -59.5q-94 0 -153.5 27.5t-93.5 72.5t-46.5 101.5t-12.5 113.5z" />
<glyph unicode="d" horiz-adv-x="876" d="M63 270q0 72 10.5 148t20.5 129q18 100 50 187t80 151.5t115 101.5t153 37q70 0 125 -28.5t90 -80.5h4l112 572h162q-72 -375 -144.5 -743.5t-146.5 -743.5h-162q4 23 8.5 46.5t8.5 47.5q-2 0 -2 1t-2 1q-51 -51 -108.5 -79.5t-139.5 -28.5q-66 0 -110 20.5t-71.5 57 t-40 89t-12.5 115.5zM236 315q0 -72 29.5 -118.5t117.5 -46.5q39 0 70.5 14t56.5 36.5t42 50.5t28 56q18 49 30.5 102.5t22.5 106.5q10 47 17 92t7 86q0 72 -33.5 119t-111.5 47q-66 0 -109 -29.5t-71.5 -77.5t-45 -109.5t-28.5 -125.5q-10 -55 -16 -107.5t-6 -95.5z" />
<glyph unicode="e" horiz-adv-x="847" d="M68 324q0 106 21.5 230t74.5 228.5t141 174t223 69.5q141 0 221 -66.5t80 -183.5q0 -82 -29.5 -148.5t-91 -114.5t-155.5 -73.5t-223 -25.5q-23 0 -50.5 1t-52.5 3q-6 -43 -6 -86q0 -37 7.5 -72t23.5 -60.5t46 -41t75 -15.5q27 0 57.5 9.5t60 25t55 37t42.5 45.5l135 -74 q-59 -88 -149.5 -143t-217.5 -55q-84 0 -140 27.5t-89 73.5t-46 107.5t-13 127.5zM254 561q23 -2 47.5 -3t46.5 -1q174 0 247 56.5t73 140.5q0 53 -41 86.5t-113 33.5q-106 0 -168.5 -83.5t-91.5 -229.5z" />
<glyph unicode="f" horiz-adv-x="528" d="M-158 -268l23 153q20 -4 33.5 -5t33.5 -1q37 0 59.5 11.5t37 29t21.5 39t11 41.5l170 870h-120l28 142h121l37 186q12 59 31.5 113.5t53.5 95.5t87 64.5t133 23.5q18 0 40 -2t44 -6q-4 -29 -11 -77t-13 -77q-33 8 -68 8q-39 0 -63.5 -15t-38 -38.5t-20.5 -52.5t-13 -53 l-35 -170h166l-27 -142h-166l-166 -847q-12 -59 -31.5 -113.5t-53 -95.5t-86 -65.5t-130.5 -24.5q-20 0 -42.5 2t-45.5 6z" />
<glyph unicode="g" horiz-adv-x="892" d="M-8 -242l135 92q23 -51 62.5 -80.5t105.5 -29.5q86 0 135 43t72 108q16 51 29.5 105.5t23.5 109.5h-4q-53 -61 -118.5 -87.5t-131.5 -26.5q-68 0 -113 20.5t-72.5 57t-38.5 87t-11 109.5q0 55 7 122t21.5 138.5t36 142t47.5 134.5q27 63 64 105t78.5 69t88 38t89.5 11 q68 0 124 -27.5t87 -80.5q2 0 2 1t2 1l20 94h162l-197 -1014q-16 -84 -40.5 -160t-68.5 -133t-116 -90t-182 -33q-106 0 -189.5 46t-109.5 128zM236 334v-18q0 -66 26 -111q29 -51 119 -51q80 0 132 53t77 121q27 76 42 157.5t23 157.5q1 25 1 51v26q-1 40 -13 71.5t-42 52 t-81 20.5q-61 0 -103 -24.5t-72 -69.5t-50.5 -108.5t-34.5 -143.5q-18 -102 -24 -184z" />
<glyph unicode="h" horiz-adv-x="909" d="M27 0l286 1489h164l-115 -590h7q59 66 125.5 95.5t134.5 29.5q115 0 181 -74q52 -57 53 -153q0 -27 -5 -58q0 -10 -12 -77.5t-31.5 -171t-44.5 -231.5t-49 -259h-166q23 115 46.5 231.5t42 214t30.5 162t12 72.5q3 20 3 38q-1 50 -21 89q-28 53 -119 53 q-88 0 -151.5 -58.5t-82.5 -154.5l-127 -647h-161z" />
<glyph unicode="i" horiz-adv-x="399" d="M35 0l196 1014h164l-196 -1014h-164zM279 1260l32 165h164l-33 -165h-163z" />
<glyph unicode="j" horiz-adv-x="423" d="M-186 -408l28 154q6 0 23.5 -1t21.5 1q66 2 96.5 44t45.5 112l217 1112h166l-226 -1149q-10 -55 -32.5 -105.5t-59.5 -87.5t-88 -59.5t-119 -22.5h-37.5t-35.5 2zM293 1260l33 165h166l-33 -165h-166z" />
<glyph unicode="k" horiz-adv-x="890" d="M31 0l288 1489h162l-188 -959h6l446 484h193l-363 -398l228 -616h-180l-172 498l-207 -230l-51 -268h-162z" />
<glyph unicode="l" horiz-adv-x="458" d="M74 170q0 39 6 76l246 1241h163q-59 -305 -118.5 -608.5t-118.5 -608.5q-4 -12 -4 -22v-21q0 -37 20.5 -58.5t65.5 -21.5h33l-31 -153h-27q-102 0 -168.5 40t-66.5 136z" />
<glyph unicode="m" horiz-adv-x="1449" d="M41 0l197 1012h163l-22 -109h6q53 59 117.5 88t134.5 29q90 0 143.5 -33t79.5 -92h2q66 61 133.5 95t153.5 34t138 -31.5t77 -82t27 -114.5v-16q0 -55 -11 -108l-133 -672h-164l131 672q6 29 4.5 60.5t-15 57t-41 42t-70.5 16.5q-51 0 -92.5 -18.5t-73 -51.5t-53 -74.5 t-29.5 -91.5l-117 -612h-166q27 141 48.5 245.5t37 184.5t26.5 138.5t19 105.5q2 21 2 41q0 15 -1 29q-3 34 -18.5 59.5t-45 41t-78.5 15.5q-94 0 -150.5 -70.5t-78.5 -185.5q-4 -18 -12.5 -65t-21 -107.5t-25.5 -129.5t-25.5 -129t-21.5 -107.5t-13 -65.5h-162z" />
<glyph unicode="n" d="M20 0l197 1014h164l-23 -113h7q57 66 123.5 94.5t134.5 28.5q57 0 103 -19.5t78 -54.5t46 -85q9 -32 9 -69q0 -21 -3 -44q0 -10 -12.5 -80t-32.5 -175.5t-46 -235.5t-50 -261h-166q23 115 46 231.5t41.5 214t31 162t12.5 72.5q4 25 4 47q0 11 -1 23q-3 32 -19.5 58 t-48 40t-83.5 14q-88 0 -146 -61.5t-77 -153.5l-127 -647h-162z" />
<glyph unicode="o" horiz-adv-x="878" d="M74 285q0 80 10 153.5t25 139.5q20 96 53 178t76 135q110 133 290 133q80 0 138.5 -24.5t96.5 -66.5t56.5 -98.5t18.5 -119.5q0 -61 -11.5 -133t-23.5 -133q-23 -111 -55.5 -196t-82 -144.5t-120 -90t-168.5 -30.5q-84 0 -141.5 24.5t-93.5 66.5t-52 95t-16 111zM229 336 q-1 -10 -1 -20q0 -27 4 -53q6 -36 23 -63.5t50 -45t86 -17.5q86 0 129 44t72 116q18 45 33.5 99.5t27 109.5t17.5 106.5t6 92.5q0 86 -44 129t-116 43q-86 0 -141 -62q-33 -35 -59.5 -94t-47.5 -135q-16 -59 -25.5 -128t-13.5 -122z" />
<glyph unicode="p" horiz-adv-x="886" d="M-63 -403q68 356 137 708t139 709h162l-19 -94q2 0 2 -1t2 -1q51 51 109.5 79.5t140.5 28.5q106 0 170 -65.5t64 -198.5q0 -68 -8.5 -146.5t-20.5 -144.5q-18 -100 -47 -187t-76 -152.5t-116.5 -103.5t-169.5 -38q-61 0 -117 27.5t-90 80.5q-2 0 -2 -1t-2 -1 q-23 -125 -47.5 -250t-49.5 -249h-161zM252 311q0 -72 36 -115.5t105 -43.5q49 0 92 19t76 67q29 41 51.5 116.5t38.5 159.5q10 47 14.5 89t6.5 77q0 37 -5 70.5t-21.5 59.5t-45.5 40t-76 14q-78 0 -128 -52t-70 -114q-25 -78 -43.5 -157.5t-26.5 -153.5q-2 -18 -3 -37.5 t-1 -38.5z" />
<glyph unicode="q" horiz-adv-x="899" d="M82 291q0 66 13.5 158t35.5 186q18 80 50 151.5t78 125t109.5 84t147.5 30.5q68 0 127 -30.5t82 -82.5q2 0 2 1t2 1l19 99h163l-270 -1417h-170q25 129 50.5 254.5t51.5 252.5q-2 0 -2 1t-2 1q-105 -116 -241 -116h-2q-72 0 -119 24.5t-75 65.5t-39 95t-11 116zM254 317 q0 -72 29.5 -118.5t115.5 -46.5q55 0 96.5 30.5t72 79.5t51 111.5t33 126t17.5 121t5 98.5q0 59 -30.5 103t-104.5 44q-59 0 -102.5 -24.5t-73 -70.5t-50 -109.5t-34.5 -143.5q-10 -59 -17.5 -109.5t-7.5 -91.5z" />
<glyph unicode="r" horiz-adv-x="634" d="M37 0l196 1014h166l-28 -137h6q53 87 125 119q67 31 144 30h9q25 -2 47.5 -7t32.5 -13l-65 -181q-20 12 -48 17.5t-49 5.5q-94 0 -161.5 -59.5t-89.5 -176.5l-121 -612h-164z" />
<glyph unicode="s" horiz-adv-x="821" d="M14 201l138 73q25 -61 72.5 -97t129.5 -36q39 0 78 11.5t67.5 34t47 56t18.5 76.5q0 35 -17.5 55.5t-47 35t-68.5 23.5t-84 22q-104 35 -157.5 85t-53.5 146q0 78 29 141.5t78 107.5t116.5 67.5t147.5 23.5q119 0 197.5 -52t107.5 -145l-143 -75q-18 57 -60.5 86.5 t-120.5 29.5q-84 0 -136 -46t-52 -115q0 -49 49 -73t135 -46q55 -14 100.5 -32.5t78 -47.5t51 -70t18.5 -96q0 -86 -29.5 -152.5t-82 -111.5t-124 -68.5t-157.5 -23.5q-123 0 -211 54t-115 159z" />
<glyph unicode="t" horiz-adv-x="512" d="M100 142q-2 16 -2 32q0 27 6 57l125 646h-112q6 35 12 67.5t14 67.5h113l51 262h164l-51 -262h143q-8 -35 -14 -68t-12 -67h-144l-117 -601q-6 -27 -7 -49t7.5 -39.5t27 -26.5t52.5 -9h54l-31 -154h-78q-66 0 -107.5 19.5t-64.5 51t-29 73.5z" />
<glyph unicode="u" horiz-adv-x="909" d="M78 260q0 10 12 80t32.5 175.5t46.5 235.5t50 263h164q-23 -115 -45.5 -232.5t-40.5 -215t-30.5 -162t-12.5 -72.5q-4 -28 -5 -53q0 -8 1 -17q2 -33 15.5 -58.5t43 -41t82.5 -15.5q43 0 82 20.5t70.5 54.5t53 78t32.5 91l123 623h161l-196 -1014h-164l22 109h-6 q-57 -66 -123.5 -93.5t-132.5 -27.5q-127 0 -189 74q-49 58 -50 147q0 24 4 51z" />
<glyph unicode="v" horiz-adv-x="784" d="M84 1012h168l37 -420q8 -86 13 -175q4 -64 4 -138q0 -30 -1 -62h6q59 92 108.5 184.5t93.5 189.5t84 200.5t81 220.5h178q-51 -139 -105.5 -269.5t-115 -254t-130 -244.5t-153.5 -244h-159z" />
<glyph unicode="w" horiz-adv-x="1286" d="M90 1014h170l23 -492q2 -35 3 -67.5t2 -66.5t1 -73t-2 -84h8q96 174 175 372t155 411h184l27 -434q4 -76 5 -156v-33q0 -68 -3 -151h6q51 92 94 179t83 179t77 193.5t78 222.5h170q-47 -145 -97.5 -274.5t-109 -251t-125 -242.5t-142.5 -246h-161l-27 487q-2 53 -4 130 q-1 26 -1 51q0 51 3 102h-10q-39 -119 -76 -217t-78 -187.5t-87 -177.5t-101 -188h-164z" />
<glyph unicode="x" horiz-adv-x="798" d="M-57 0l395 520q-10 20 -24.5 59t-32 87.5t-36 100.5t-35.5 100t-32.5 87t-23.5 60h182l110 -357q16 23 51 73t72 106.5t72 105.5t51 72h197l-381 -498q14 -31 40.5 -103.5t56.5 -154.5t56.5 -154.5t40.5 -103.5h-182l-117 371q-18 -23 -55 -75t-77 -110.5t-76.5 -110.5 t-55.5 -75h-196z" />
<glyph unicode="y" horiz-adv-x="768" d="M-133 -268q106 14 191 68.5t147 156.5l-115 1057h170l37 -455q8 -88 13 -201q3 -64 3 -123q0 -47 -2 -92h6q49 90 96.5 198t91.5 221.5t85 229t76 222.5h170q-61 -182 -117.5 -336t-114 -290t-117 -258t-129.5 -236q-92 -150 -212 -230q-116 -78 -266 -78h-7z" />
<glyph unicode="z" horiz-adv-x="749" d="M-39 0l29 145l588 721h-420l26 146h607l-27 -142l-582 -714h443l-31 -156h-633z" />
<glyph unicode="{" horiz-adv-x="497" d="M61 569l21 105q41 6 72.5 29.5t56.5 59.5t41 82t27 95l55 279q16 92 76.5 149t150.5 57h107l-21 -108h-53q-33 0 -55.5 -14.5t-37 -37t-22.5 -50t-14 -54.5l-51 -266q-12 -66 -38 -114t-54.5 -80.5t-55 -50t-43.5 -23.5l-2 -6q14 -6 34.5 -23.5t36 -50.5t23 -80 t-5.5 -111l-55 -290q-12 -70 -2 -119t63 -49h56l-21 -109h-86q-92 0 -137 62.5t-27 162.5l56 293q20 109 1.5 180.5t-96.5 81.5z" />
<glyph unicode="|" horiz-adv-x="423" d="M147 -330v1809h132v-1809h-132z" />
<glyph unicode="}" horiz-adv-x="497" d="M-86 -211l20 109h52q59 0 87.5 51t43.5 127l49 260q12 63 37.5 111.5t53.5 81t55.5 50t43.5 23.5l2 6q-16 6 -35.5 23.5t-35 49.5t-21.5 80t6 113l52 265q8 39 11 71.5t-2 56t-21.5 37t-47.5 13.5h-57l20 104h95q100 0 138 -62.5t19 -158.5l-55 -278q-10 -51 -11 -97.5 t9 -82t32.5 -58t61.5 -27.5l-20 -104q-80 -10 -127 -86t-68 -178l-57 -293q-16 -92 -75.5 -149.5t-158.5 -57.5h-96z" />
<glyph unicode="~" d="M59 506q57 82 125 126t144 44q49 0 89 -17.5t77.5 -39t74.5 -39t78 -17.5t77 21.5t77 77.5l94 -64q-51 -86 -114.5 -132t-147.5 -46q-41 0 -81 17.5t-81 38t-82 37.5t-84 17q-47 0 -77.5 -24.5t-77.5 -71.5z" />
<glyph unicode="&#xa1;" horiz-adv-x="481" d="M53 -414l223 1063h130l-191 -1063h-162zM287 829l37 183h174l-37 -183h-174z" />
<glyph unicode="&#xa2;" horiz-adv-x="821" d="M59 303q0 59 8.5 118.5t18.5 119.5q16 92 49 177t83 151.5t122 107.5t168 47l41 207h88l-41 -209q90 -14 150.5 -67.5t76.5 -143.5l-151 -74q-8 53 -36 85t-71 42l-139 -719q49 10 91 44t65 83l139 -77q-47 -84 -130 -140.5t-196 -64.5l-43 -230h-88l45 232 q-76 8 -125 37.5t-76.5 72.5t-38 95.5t-10.5 105.5zM225 340q0 -86 25.5 -133t89.5 -60l137 717q-51 -10 -89 -41.5t-65.5 -78t-46 -102.5t-28.5 -116q-10 -47 -16.5 -95t-6.5 -91z" />
<glyph unicode="&#xa3;" d="M-6 0q4 35 11 68.5t13 68.5q90 106 152.5 218t89.5 255h-154l27 133h135q0 72 -12 148t-12 137q0 88 27.5 163t77.5 129t121 85t157 31q152 0 229.5 -74t93.5 -219l-153 -47q-8 39 -19.5 73.5t-31 59t-51 39t-79.5 14.5q-53 0 -90 -22.5t-60.5 -61.5t-34.5 -88t-11 -102 q0 -55 10 -119t10 -123q0 -6 -1 -11t-1 -12h252l-28 -133h-238q-29 -143 -76 -249.5t-123 -206.5h527l-29 -154h-729z" />
<glyph unicode="&#xa5;" d="M66 338l20 106h272l21 109v53h-260q4 27 9 52.5t11 52.5h221q-39 180 -74.5 357t-74.5 357h166l115 -667h2q18 35 41.5 75.5t63.5 112.5t104.5 185.5t166.5 293.5h170l-428 -714h226q-4 -27 -9.5 -52.5t-11.5 -52.5h-262l-23 -53q-4 -27 -9 -53.5t-11 -55.5h274l-20 -106 h-274l-68 -338h-154l68 338h-272z" />
<glyph unicode="&#xa7;" horiz-adv-x="911" d="M25 -12l98 102q49 -59 106.5 -81.5t126.5 -22.5q106 0 177 52t71 144q0 59 -50 110.5t-155 104.5q-115 59 -177 116.5t-62 152.5q0 96 45 161.5t127 118.5q-29 37 -44.5 73t-15.5 89q0 78 31 139.5t83 103.5t120.5 64.5t146.5 22.5q100 0 182.5 -32t135.5 -91l-105 -111 q-53 55 -108.5 74.5t-110.5 19.5q-90 0 -149.5 -52t-59.5 -124q0 -31 16.5 -55.5t43 -47t61.5 -43t72 -38.5q43 -23 88 -50.5t83 -62t61.5 -80t23.5 -102.5q0 -94 -46 -162.5t-118 -120.5q20 -33 31.5 -71.5t11.5 -81.5q0 -78 -29.5 -143.5t-83 -113.5t-130.5 -76t-169 -28 q-100 0 -191 40t-138 102zM317 698q0 -45 33 -79.5t80 -62.5t100.5 -52.5t94.5 -48.5q51 23 78.5 70.5t27.5 99.5q0 57 -48 97t-138 81q-25 12 -49.5 26.5t-53.5 30.5q-49 -18 -87 -65t-38 -97z" />
<glyph unicode="&#xa8;" horiz-adv-x="864" d="M336 1214l35 172h157l-32 -172h-160zM674 1214l35 172h157l-32 -172h-160z" />
<glyph unicode="&#xa9;" horiz-adv-x="1542" d="M104 698q0 154 47.5 286t134.5 228.5t211 150.5t275 54q150 0 272.5 -54t210.5 -150.5t135.5 -228.5t47.5 -286t-47.5 -283.5t-135.5 -226t-210.5 -150.5t-272.5 -54q-154 0 -277.5 54t-210.5 150.5t-133.5 226.5t-46.5 283zM227 698q0 -127 39 -235.5t111 -190.5 t172 -128t223 -46q125 0 225.5 46t171 128t108.5 190.5t38 235.5t-39 238t-109.5 191.5t-171 128t-223.5 47.5q-127 0 -227.5 -47.5t-171 -128t-108.5 -191.5t-38 -238zM504 524v320q0 121 72.5 199.5t201.5 78.5q104 0 176 -55t88 -156l-116 -39q-10 59 -49 97.5t-99 38.5 q-74 0 -112.5 -50.5t-38.5 -111.5v-324q0 -63 40 -112.5t111 -49.5q119 0 148 138l116 -39q-18 -106 -88.5 -160.5t-175.5 -54.5q-127 0 -200.5 77.5t-73.5 202.5z" />
<glyph unicode="&#xaa;" horiz-adv-x="632" d="M121 750q0 45 6 92t14 88q14 66 36 123t54.5 100t80.5 68.5t114 25.5q41 0 77 -14t58 -45l10 55h131l-133 -672h-129l13 58q-61 -66 -160 -66q-78 0 -125 50.5t-47 136.5zM256 791q0 -47 18.5 -75t71.5 -28q47 0 77 30t42 62q23 55 37 115.5t20 114.5q4 43 -14.5 78.5 t-75.5 35.5q-66 0 -102 -55q-16 -27 -32.5 -78t-27.5 -100q-6 -31 -10 -58.5t-4 -41.5z" />
<glyph unicode="&#xab;" horiz-adv-x="915" d="M100 475l310 381h163l-311 -383l160 -379h-158zM442 475l310 381h163l-309 -383l158 -379h-158z" />
<glyph unicode="&#xac;" d="M61 539l25 127h821l-96 -492h-139l69 365h-680z" />
<glyph unicode="&#xad;" horiz-adv-x="755" d="M117 494l28 145h562l-29 -145h-561z" />
<glyph unicode="&#xae;" horiz-adv-x="1071" d="M123 1006q0 94 28.5 175t83 139t130 92t170.5 34q92 0 166.5 -34t129 -92t83 -139t28.5 -175t-28.5 -174t-83 -138.5t-129 -91.5t-166.5 -33q-94 0 -170 33t-130.5 91.5t-83 138t-28.5 174.5zM207 1008q0 -78 23.5 -144.5t66.5 -115t103.5 -75t134.5 -26.5q76 0 136 27.5 t101 76t63.5 114t22.5 143.5q0 76 -22.5 142.5t-65.5 115.5t-102 77.5t-133 28.5q-78 0 -138.5 -28.5t-102.5 -77.5t-64.5 -116t-22.5 -142zM381 741v523h174q68 0 109 -40t41 -114q0 -100 -87 -141q25 -57 51.5 -113.5t51.5 -114.5h-96q-23 53 -45.5 107.5t-44.5 107.5h-68 v-215h-86zM467 1032h72q33 0 56 18.5t23 59.5q0 37 -20 56.5t-51 19.5h-80v-154z" />
<glyph unicode="&#xaf;" horiz-adv-x="876" d="M328 1217l28 145h521l-31 -145h-518z" />
<glyph unicode="&#xb0;" horiz-adv-x="681" d="M104 1196q0 49 18.5 93t51.5 77t77 52.5t93 19.5q53 0 97 -19.5t77 -52.5t50.5 -77t17.5 -93t-19.5 -93t-52.5 -77t-77 -52.5t-93 -19.5t-93 19.5t-77 52.5t-51.5 77t-18.5 93zM205 1196q0 -59 40 -100t99 -41t99 41t40 100t-40 99t-99 40q-57 0 -98 -40t-41 -99z" />
<glyph unicode="&#xb1;" d="M-35 0l25 127h813l-25 -127h-813zM76 569l24 127h344l68 346h125l-66 -346h342l-24 -127h-342l-68 -346h-127l68 346h-344z" />
<glyph unicode="&#xb4;" horiz-adv-x="868" d="M528 1171l213 355l146 -51l-266 -342z" />
<glyph unicode="&#xb6;" horiz-adv-x="985" d="M166 934q0 84 26.5 174t78 165t126 123t170.5 48h541l-29 -150h-90l-284 -1462h-146l285 1462h-152l-282 -1462h-148l160 832h-51q-53 0 -91 21.5t-64 58t-38 86t-12 104.5z" />
<glyph unicode="&#xb7;" horiz-adv-x="442" d="M154 442l39 207h194l-39 -207h-194z" />
<glyph unicode="&#xb8;" horiz-adv-x="882" d="M86 -393l41 86q35 -18 70.5 -23.5t62.5 -5.5q41 0 74 21.5t33 62.5q0 76 -95 76h-20l-31 31l101 208l81 -4l-71 -155q45 -4 75.5 -17.5t48 -33t24.5 -42t7 -44.5q0 -31 -12 -65t-39.5 -61.5t-70.5 -46t-103 -18.5h-29.5t-45 3t-52 9t-49.5 19z" />
<glyph unicode="&#xba;" horiz-adv-x="606" d="M117 766q0 53 7 100t17 88q16 63 38 117.5t50 89.5q33 41 82 64.5t115 23.5q115 0 172 -60.5t57 -146.5q0 -41 -7 -88t-17 -86q-31 -141 -97.5 -222t-201.5 -81q-59 0 -100.5 16.5t-67 44t-36.5 64.5t-11 76zM242 788q0 -20 3 -38.5t14 -34t30.5 -24.5t52.5 -9 q47 0 78 26.5t47 69.5q23 59 41 133t18 125q0 49 -29.5 74t-72.5 25q-47 0 -86 -35q-23 -23 -38 -57.5t-28 -75.5q-12 -45 -21 -95.5t-9 -83.5z" />
<glyph unicode="&#xbb;" horiz-adv-x="915" d="M27 94l315 385l-166 377h158l168 -381l-316 -381h-159zM369 94l313 385l-164 377h158l168 -381l-316 -381h-159z" />
<glyph unicode="&#xbf;" horiz-adv-x="888" d="M72 -113q0 63 13 113.5t35.5 91.5t52.5 78t63 72q31 33 64.5 65.5t64 68.5t54 72.5t32.5 75.5l24 123h170q-6 -35 -13 -68.5t-16 -68.5q-10 -55 -42.5 -106.5t-73.5 -99.5t-86 -95t-82 -94t-61.5 -95.5t-24.5 -99.5q0 -70 41 -124t137 -54q51 0 91 18.5t68.5 49t46 71.5 t23.5 86l170 -35q-41 -188 -145 -269t-272 -81q-147 0 -240.5 82t-93.5 223zM510 834l37 182h172l-37 -182h-172z" />
<glyph unicode="&#xc0;" horiz-adv-x="1005" d="M-66 0l687 1425h153l133 -1425h-170l-22 324h-453l-149 -324h-179zM330 477h375l-29 369l-23 325h-6l-141 -321zM369 1686l82 124l321 -233l-51 -82z" />
<glyph unicode="&#xc1;" horiz-adv-x="1005" d="M-66 0l687 1425h153l133 -1425h-170l-22 324h-453l-149 -324h-179zM330 477h375l-29 369l-23 325h-6l-141 -321zM623 1571l344 239l88 -120l-379 -199z" />
<glyph unicode="&#xc2;" horiz-adv-x="1005" d="M-66 0l687 1425h153l133 -1425h-170l-22 324h-453l-149 -324h-179zM330 477h375l-29 369l-23 325h-6l-141 -321zM358 1569l338 256h103l223 -252l-72 -68l-225 164l-311 -168z" />
<glyph unicode="&#xc3;" horiz-adv-x="1005" d="M-66 0l687 1425h153l133 -1425h-170l-22 324h-453l-149 -324h-179zM330 477h375l-29 369l-23 325h-6l-141 -321zM377 1583q47 80 106.5 123t118.5 43q33 0 64.5 -13.5t62.5 -28.5t59.5 -28.5t55.5 -13.5q29 0 57.5 18.5t65.5 65.5l88 -57q-49 -94 -108.5 -131t-112.5 -37 q-35 0 -67 12t-62.5 27.5t-59.5 29t-55 13.5q-31 0 -56.5 -21.5t-64.5 -62.5z" />
<glyph unicode="&#xc4;" horiz-adv-x="1005" d="M-66 0l687 1425h153l133 -1425h-170l-22 324h-453l-149 -324h-179zM330 477h375l-29 369l-23 325h-6l-141 -321zM465 1532l33 172h159l-32 -172h-160zM807 1532l33 172h159l-32 -172h-160z" />
<glyph unicode="&#xc5;" horiz-adv-x="1005" d="M-66 0l687 1425h153l133 -1425h-170l-22 324h-453l-149 -324h-179zM330 477h375l-29 369l-23 325h-6l-141 -321zM553 1616q0 45 18.5 86t50 72.5t73.5 50t91 18.5q72 0 117 -45t45 -112q0 -49 -20.5 -91.5t-53 -73t-74.5 -47t-85 -16.5q-72 0 -117 45t-45 113zM643 1630 q0 -39 23.5 -62.5t62.5 -23.5q49 0 88 37t39 90q0 35 -24.5 59.5t-63.5 24.5q-49 0 -87 -38t-38 -87z" />
<glyph unicode="&#xc6;" horiz-adv-x="1640" d="M-37 0q225 358 450.5 712.5t450.5 712.5h850l-22 -159h-584l-68 -467h502l-20 -154h-502l-68 -481h586l-22 -164h-758l55 395h-424l-250 -395h-176zM487 549h347l106 719h-4z" />
<glyph unicode="&#xc7;" horiz-adv-x="960" d="M94 328q0 39 10.5 109.5t22.5 135.5q16 86 34.5 174.5t35.5 174.5q18 96 48.5 188t85 165t138.5 117t209 44q176 0 264 -86t96 -228l-172 -51q0 92 -49 147.5t-141 55.5q-68 0 -114 -19.5t-77.5 -52.5t-52 -74t-35.5 -84q-35 -117 -56.5 -242.5t-45.5 -248.5 q-10 -49 -19.5 -102.5t-9.5 -98.5t9.5 -82t32 -64.5t59 -43t94.5 -15.5q96 0 167.5 54.5t106.5 158.5l164 -63q-53 -147 -160.5 -226t-265.5 -83l-39 -84q45 -4 76 -17.5t48 -33t24.5 -42t7.5 -44.5q0 -31 -12.5 -65t-40 -61.5t-70.5 -46t-102 -18.5h-30t-45.5 3t-52 9 t-49.5 19l41 86q35 -18 71 -23.5t62 -5.5q41 0 74 21.5t33 62.5q0 76 -94 76h-21l-30 31l65 137q-152 16 -223.5 108.5t-71.5 227.5z" />
<glyph unicode="&#xc8;" horiz-adv-x="919" d="M49 0l277 1425h747l-33 -157h-577l-90 -469h495l-28 -154h-496l-96 -487h577l-28 -158h-748zM395 1686l82 124l322 -233l-51 -82z" />
<glyph unicode="&#xc9;" horiz-adv-x="919" d="M49 0l277 1425h747l-33 -157h-577l-90 -469h495l-28 -154h-496l-96 -487h577l-28 -158h-748zM602 1571l344 239l88 -120l-379 -199z" />
<glyph unicode="&#xca;" horiz-adv-x="919" d="M49 0l277 1425h747l-33 -157h-577l-90 -469h495l-28 -154h-496l-96 -487h577l-28 -158h-748zM375 1569l338 256h102l223 -252l-71 -68l-226 164l-311 -168z" />
<glyph unicode="&#xcb;" horiz-adv-x="919" d="M49 0l277 1425h747l-33 -157h-577l-90 -469h495l-28 -154h-496l-96 -487h577l-28 -158h-748zM451 1532l32 172h160l-33 -172h-159zM793 1532l32 172h160l-33 -172h-159z" />
<glyph unicode="&#xcc;" horiz-adv-x="438" d="M51 0l279 1425h170l-277 -1425h-172zM92 1686l82 124l322 -233l-52 -82z" />
<glyph unicode="&#xcd;" horiz-adv-x="438" d="M51 0l279 1425h170l-277 -1425h-172zM379 1571l344 239l88 -120l-379 -199z" />
<glyph unicode="&#xce;" horiz-adv-x="438" d="M51 0l279 1425h170l-277 -1425h-172zM94 1569l338 256h103l223 -252l-72 -68l-225 164l-311 -168z" />
<glyph unicode="&#xcf;" horiz-adv-x="438" d="M51 0l279 1425h170l-277 -1425h-172zM186 1550l33 172h158l-33 -172h-158zM524 1550l33 172h158l-33 -172h-158z" />
<glyph unicode="&#xd0;" horiz-adv-x="1054" d="M47 0l131 674h-131l25 127h131l121 624h374q166 0 265.5 -75.5t99.5 -237.5q0 -63 -14.5 -174t-36.5 -233q-12 -74 -27.5 -148t-32 -138.5t-33 -114.5t-30.5 -79q-76 -135 -180.5 -180t-233.5 -45h-428zM246 156h211q86 0 143 21.5t96 61.5t60.5 97t36.5 129l67 350 q6 31 12.5 68t11.5 70.5t9 62t4 43.5q6 96 -45 152.5t-178 56.5h-211l-90 -467h168l-27 -127h-166z" />
<glyph unicode="&#xd1;" horiz-adv-x="1136" d="M45 0l279 1425h163l248 -757l94 -291h7l202 1048h168l-276 -1425h-162l-254 774l-90 285h-6l-203 -1059h-170zM455 1573q47 80 106.5 123t118.5 43q33 0 64.5 -13.5t62.5 -29t59.5 -28.5t55.5 -13q29 0 57.5 18.5t64.5 65.5l89 -58q-49 -94 -108.5 -131t-113.5 -37 q-35 0 -66.5 12.5t-62 28t-59.5 28.5t-55 13q-31 0 -56.5 -21.5t-64.5 -62.5z" />
<glyph unicode="&#xd2;" horiz-adv-x="1017" d="M96.5 273q-12.5 83 3.5 173l111 566q14 72 44 147.5t84 137t135 100.5t196 39q111 0 186.5 -39t119.5 -100.5t58.5 -138.5t-0.5 -154l-104 -588q-39 -207 -153.5 -317.5t-301.5 -110.5q-117 0 -196.5 37.5t-124.5 101t-57.5 146.5zM262 332q4 -53 26.5 -95t68.5 -67 t120 -25q109 0 181.5 68t95.5 186l116 605q6 33 3 78.5t-25.5 88.5t-70.5 73t-132 30q-70 0 -117 -27.5t-78.5 -67.5t-48 -87.5t-24.5 -85.5l-107 -564q-12 -57 -8 -110zM471 1686l82 124l321 -233l-51 -82z" />
<glyph unicode="&#xd3;" horiz-adv-x="1017" d="M96.5 273q-12.5 83 3.5 173l111 566q14 72 44 147.5t84 137t135 100.5t196 39q111 0 186.5 -39t119.5 -100.5t58.5 -138.5t-0.5 -154l-104 -588q-39 -207 -153.5 -317.5t-301.5 -110.5q-117 0 -196.5 37.5t-124.5 101t-57.5 146.5zM262 332q4 -53 26.5 -95t68.5 -67 t120 -25q109 0 181.5 68t95.5 186l116 605q6 33 3 78.5t-25.5 88.5t-70.5 73t-132 30q-70 0 -117 -27.5t-78.5 -67.5t-48 -87.5t-24.5 -85.5l-107 -564q-12 -57 -8 -110zM623 1569q86 61 172 120.5t172 120.5l86 -120q-94 -51 -188.5 -100.5t-190.5 -100.5z" />
<glyph unicode="&#xd4;" horiz-adv-x="1017" d="M96.5 273q-12.5 83 3.5 173l111 566q14 72 44 147.5t84 137t135 100.5t196 39q111 0 186.5 -39t119.5 -100.5t58.5 -138.5t-0.5 -154l-104 -588q-39 -207 -153.5 -317.5t-301.5 -110.5q-117 0 -196.5 37.5t-124.5 101t-57.5 146.5zM262 332q4 -53 26.5 -95t68.5 -67 t120 -25q109 0 181.5 68t95.5 186l116 605q6 33 3 78.5t-25.5 88.5t-70.5 73t-132 30q-70 0 -117 -27.5t-78.5 -67.5t-48 -87.5t-24.5 -85.5l-107 -564q-12 -57 -8 -110zM385 1569l338 256h102l224 -252l-72 -68l-225 164l-312 -168z" />
<glyph unicode="&#xd5;" horiz-adv-x="1017" d="M96.5 273q-12.5 83 3.5 173l111 566q14 72 44 147.5t84 137t135 100.5t196 39q111 0 186.5 -39t119.5 -100.5t58.5 -138.5t-0.5 -154l-104 -588q-39 -207 -153.5 -317.5t-301.5 -110.5q-117 0 -196.5 37.5t-124.5 101t-57.5 146.5zM262 332q4 -53 26.5 -95t68.5 -67 t120 -25q109 0 181.5 68t95.5 186l116 605q6 33 3 78.5t-25.5 88.5t-70.5 73t-132 30q-70 0 -117 -27.5t-78.5 -67.5t-48 -87.5t-24.5 -85.5l-107 -564q-12 -57 -8 -110zM412 1583q47 80 106.5 123t118.5 43q33 0 64.5 -13.5t62.5 -28.5t59.5 -28.5t55.5 -13.5 q29 0 57.5 18.5t64.5 65.5l89 -57q-49 -94 -108.5 -131t-113.5 -37q-35 0 -66.5 12t-62 27.5t-59.5 29t-55 13.5q-31 0 -56.5 -21.5t-64.5 -62.5z" />
<glyph unicode="&#xd6;" horiz-adv-x="1017" d="M96.5 273q-12.5 83 3.5 173l111 566q14 72 44 147.5t84 137t135 100.5t196 39q111 0 186.5 -39t119.5 -100.5t58.5 -138.5t-0.5 -154l-104 -588q-39 -207 -153.5 -317.5t-301.5 -110.5q-117 0 -196.5 37.5t-124.5 101t-57.5 146.5zM262 332q4 -53 26.5 -95t68.5 -67 t120 -25q109 0 181.5 68t95.5 186l116 605q6 33 3 78.5t-25.5 88.5t-70.5 73t-132 30q-70 0 -117 -27.5t-78.5 -67.5t-48 -87.5t-24.5 -85.5l-107 -564q-12 -57 -8 -110zM477 1532l33 172h160l-33 -172h-160zM819 1532l33 172h160l-33 -172h-160z" />
<glyph unicode="&#xd8;" horiz-adv-x="1017" d="M55 37l80 117q-35 61 -43 136t8 156l111 566q14 72 44 147.5t84 137t135 100.5t196 39q96 0 165.5 -30t114.5 -79l78 111l74 -52l-96 -139q27 -55 32.5 -117.5t-4.5 -125.5l-104 -588q-39 -207 -153.5 -317.5t-301.5 -110.5q-96 0 -166.5 24.5t-118.5 69.5l-67 -96z M262 334l584 842q-23 41 -71 69.5t-130 28.5q-70 0 -117 -27.5t-78.5 -67.5t-48 -87.5t-24.5 -85.5l-107 -564q-12 -51 -8 -108zM293 227q23 -37 68 -59.5t116 -22.5q109 0 181.5 68t95.5 186l116 605q2 12 4.5 26t-0.5 31z" />
<glyph unicode="&#xd9;" horiz-adv-x="1050" d="M113.5 271q-7.5 81 7.5 167q20 111 46 243t51.5 266t49 258t41.5 220h168q-18 -92 -42.5 -220t-51.5 -266t-52.5 -270t-43.5 -233q-10 -49 -10.5 -99t18 -90t58.5 -64.5t108 -24.5q80 0 135 27.5t92 74.5t58.5 109.5t33.5 130.5l181 925h169q-47 -238 -92 -471t-90 -469 q-18 -106 -55 -197t-95.5 -158t-141.5 -104.5t-195 -37.5q-121 0 -193.5 37.5t-109.5 101t-44.5 144.5zM453 1686l82 124l321 -233l-51 -82z" />
<glyph unicode="&#xda;" horiz-adv-x="1050" d="M113.5 271q-7.5 81 7.5 167q20 111 46 243t51.5 266t49 258t41.5 220h168q-18 -92 -42.5 -220t-51.5 -266t-52.5 -270t-43.5 -233q-10 -49 -10.5 -99t18 -90t58.5 -64.5t108 -24.5q80 0 135 27.5t92 74.5t58.5 109.5t33.5 130.5l181 925h169q-47 -238 -92 -471t-90 -469 q-18 -106 -55 -197t-95.5 -158t-141.5 -104.5t-195 -37.5q-121 0 -193.5 37.5t-109.5 101t-44.5 144.5zM631 1569q86 61 172 120.5t172 120.5l86 -120q-94 -51 -188.5 -100.5t-190.5 -100.5z" />
<glyph unicode="&#xdb;" horiz-adv-x="1050" d="M113.5 271q-7.5 81 7.5 167q20 111 46 243t51.5 266t49 258t41.5 220h168q-18 -92 -42.5 -220t-51.5 -266t-52.5 -270t-43.5 -233q-10 -49 -10.5 -99t18 -90t58.5 -64.5t108 -24.5q80 0 135 27.5t92 74.5t58.5 109.5t33.5 130.5l181 925h169q-47 -238 -92 -471t-90 -469 q-18 -106 -55 -197t-95.5 -158t-141.5 -104.5t-195 -37.5q-121 0 -193.5 37.5t-109.5 101t-44.5 144.5zM414 1569l338 256h102l223 -252l-71 -68l-226 164l-311 -168z" />
<glyph unicode="&#xdc;" horiz-adv-x="1050" d="M113.5 271q-7.5 81 7.5 167q20 111 46 243t51.5 266t49 258t41.5 220h168q-18 -92 -42.5 -220t-51.5 -266t-52.5 -270t-43.5 -233q-10 -49 -10.5 -99t18 -90t58.5 -64.5t108 -24.5q80 0 135 27.5t92 74.5t58.5 109.5t33.5 130.5l181 925h169q-47 -238 -92 -471t-90 -469 q-18 -106 -55 -197t-95.5 -158t-141.5 -104.5t-195 -37.5q-121 0 -193.5 37.5t-109.5 101t-44.5 144.5zM477 1532l33 172h160l-33 -172h-160zM819 1532l33 172h160l-33 -172h-160z" />
<glyph unicode="&#xdd;" horiz-adv-x="894" d="M209 1425h166l98 -481q8 -29 17.5 -73t17.5 -78l10 -2l148 251q55 98 111.5 192.5t111.5 190.5h182l-510 -829l-117 -596h-163l116 596q-47 209 -94 415t-94 414zM524 1569q86 61 172 120.5t172 120.5l86 -120q-94 -51 -188 -100.5t-191 -100.5z" />
<glyph unicode="&#xde;" horiz-adv-x="991" d="M49 0l275 1421h170q-12 -66 -24.5 -133t-27.5 -133h238q162 0 249 -82t87 -231q0 -92 -23.5 -187.5t-81 -174.5t-151.5 -128t-238 -49h-243l-58 -303h-172zM309 461h234q80 0 136 30.5t92 80t52.5 109.5t16.5 120q0 80 -46 137t-151 57h-229z" />
<glyph unicode="&#xdf;" horiz-adv-x="903" d="M25 0l211 1087q16 88 44.5 160t72.5 124t107.5 81t149.5 29q164 0 238 -83t74 -222q0 -115 -49.5 -196t-143.5 -122q66 -29 89.5 -83t23.5 -124q0 -45 -7.5 -94t-13.5 -98q-12 -92 -37.5 -177t-72.5 -149.5t-120 -103.5t-181 -39h-76l26 141h27q74 0 122 32t76.5 83 t45 117.5t26.5 136.5q6 39 9.5 87t-6 91t-35 71.5t-78.5 28.5h-49l28 144h39q53 0 89 24.5t58.5 61t32 81t9.5 82.5q0 72 -38 116t-118 44q-49 0 -83 -20.5t-56.5 -54t-35.5 -75.5t-22 -85l-215 -1096h-161z" />
<glyph unicode="&#xe0;" horiz-adv-x="915" d="M74 291q0 55 8 117.5t18 115.5q20 102 51 193.5t78 159t115 107.5t160 40q68 0 125 -27.5t88 -81.5q2 0 2 1.5t2 1.5l20 96h160l-196 -1014h-162l18 94q-2 0 -3 1t-3 1q-51 -57 -101.5 -82.5t-134.5 -25.5q-125 0 -185 82t-60 221zM244 326q0 -35 6 -67t22.5 -56.5 t44 -38.5t72.5 -14q72 0 120 48t71 105q18 47 34.5 101.5t27.5 106.5t18.5 101.5t7.5 87.5q0 76 -36 119t-110 43q-49 0 -91 -21.5t-75 -72.5q-25 -37 -46 -104.5t-38 -141.5q-12 -59 -20 -109.5t-8 -86.5zM401 1477l138 57l147 -369l-88 -39z" />
<glyph unicode="&#xe1;" horiz-adv-x="915" d="M74 291q0 55 8 117.5t18 115.5q20 102 51 193.5t78 159t115 107.5t160 40q68 0 125 -27.5t88 -81.5q2 0 2 1.5t2 1.5l20 96h160l-196 -1014h-162l18 94q-2 0 -3 1t-3 1q-51 -57 -101.5 -82.5t-134.5 -25.5q-125 0 -185 82t-60 221zM244 326q0 -35 6 -67t22.5 -56.5 t44 -38.5t72.5 -14q72 0 120 48t71 105q18 47 34.5 101.5t27.5 106.5t18.5 101.5t7.5 87.5q0 76 -36 119t-110 43q-49 0 -91 -21.5t-75 -72.5q-25 -37 -46 -104.5t-38 -141.5q-12 -59 -20 -109.5t-8 -86.5zM498 1171l213 355l145 -51l-266 -342z" />
<glyph unicode="&#xe2;" horiz-adv-x="915" d="M74 291q0 55 8 117.5t18 115.5q20 102 51 193.5t78 159t115 107.5t160 40q68 0 125 -27.5t88 -81.5q2 0 2 1.5t2 1.5l20 96h160l-196 -1014h-162l18 94q-2 0 -3 1t-3 1q-51 -57 -101.5 -82.5t-134.5 -25.5q-125 0 -185 82t-60 221zM244 326q0 -35 6 -67t22.5 -56.5 t44 -38.5t72.5 -14q72 0 120 48t71 105q18 47 34.5 101.5t27.5 106.5t18.5 101.5t7.5 87.5q0 76 -36 119t-110 43q-49 0 -91 -21.5t-75 -72.5q-25 -37 -46 -104.5t-38 -141.5q-12 -59 -20 -109.5t-8 -86.5zM276 1198l345 299h102l217 -295l-88 -69l-201 210l-309 -213z" />
<glyph unicode="&#xe3;" horiz-adv-x="915" d="M74 291q0 55 8 117.5t18 115.5q20 102 51 193.5t78 159t115 107.5t160 40q68 0 125 -27.5t88 -81.5q2 0 2 1.5t2 1.5l20 96h160l-196 -1014h-162l18 94q-2 0 -3 1t-3 1q-51 -57 -101.5 -82.5t-134.5 -25.5q-125 0 -185 82t-60 221zM244 326q0 -35 6 -67t22.5 -56.5 t44 -38.5t72.5 -14q72 0 120 48t71 105q18 47 34.5 101.5t27.5 106.5t18.5 101.5t7.5 87.5q0 76 -36 119t-110 43q-49 0 -91 -21.5t-75 -72.5q-25 -37 -46 -104.5t-38 -141.5q-12 -59 -20 -109.5t-8 -86.5zM301 1245q47 80 106.5 123t118.5 43q33 0 65 -13.5t62.5 -28.5 t59 -28.5t55.5 -13.5q29 0 57.5 18.5t65.5 65.5l88 -57q-49 -94 -108.5 -131t-112.5 -37q-35 0 -67 12t-62.5 27.5t-59 29t-55.5 13.5q-31 0 -56.5 -21.5t-64.5 -62.5z" />
<glyph unicode="&#xe4;" horiz-adv-x="915" d="M74 291q0 55 8 117.5t18 115.5q20 102 51 193.5t78 159t115 107.5t160 40q68 0 125 -27.5t88 -81.5q2 0 2 1.5t2 1.5l20 96h160l-196 -1014h-162l18 94q-2 0 -3 1t-3 1q-51 -57 -101.5 -82.5t-134.5 -25.5q-125 0 -185 82t-60 221zM244 326q0 -35 6 -67t22.5 -56.5 t44 -38.5t72.5 -14q72 0 120 48t71 105q18 47 34.5 101.5t27.5 106.5t18.5 101.5t7.5 87.5q0 76 -36 119t-110 43q-49 0 -91 -21.5t-75 -72.5q-25 -37 -46 -104.5t-38 -141.5q-12 -59 -20 -109.5t-8 -86.5zM354 1214l35 172h158l-33 -172h-160zM692 1214l35 172h158 l-33 -172h-160z" />
<glyph unicode="&#xe5;" horiz-adv-x="915" d="M74 291q0 55 8 117.5t18 115.5q20 102 51 193.5t78 159t115 107.5t160 40q68 0 125 -27.5t88 -81.5q2 0 2 1.5t2 1.5l20 96h160l-196 -1014h-162l18 94q-2 0 -3 1t-3 1q-51 -57 -101.5 -82.5t-134.5 -25.5q-125 0 -185 82t-60 221zM244 326q0 -35 6 -67t22.5 -56.5 t44 -38.5t72.5 -14q72 0 120 48t71 105q18 47 34.5 101.5t27.5 106.5t18.5 101.5t7.5 87.5q0 76 -36 119t-110 43q-49 0 -91 -21.5t-75 -72.5q-25 -37 -46 -104.5t-38 -141.5q-12 -59 -20 -109.5t-8 -86.5zM438 1272q0 45 18.5 86t50.5 72.5t74 50t91 18.5q72 0 117 -45 t45 -113q0 -49 -20.5 -91t-53.5 -72.5t-75 -47t-85 -16.5q-72 0 -117 45t-45 113zM528 1286q0 -39 23.5 -62.5t62.5 -23.5q49 0 88 37t39 90q0 35 -24.5 59.5t-63.5 24.5q-49 0 -87 -38t-38 -87z" />
<glyph unicode="&#xe6;" horiz-adv-x="1388" d="M43 229q0 174 111.5 271.5t306.5 97.5q43 -2 84 -6t100 -12l25 143q12 72 -26 109.5t-128 37.5q-70 0 -124 -23.5t-81 -72.5l-121 78q47 82 138.5 128t206.5 46q37 0 77.5 -6t78.5 -19.5t69 -35t49 -50.5q49 47 116.5 79t151.5 32q145 0 223 -68.5t78 -185.5 q0 -158 -112.5 -255t-345.5 -103q-31 0 -65 1t-69 3q-4 -29 -8 -55.5t-4 -49.5q0 -92 36 -133t120 -41q61 0 120.5 35t88.5 86l123 -74q-51 -92 -140.5 -145t-214.5 -53q-106 0 -169.5 39t-92.5 112q-59 -86 -153.5 -118.5t-192.5 -32.5q-68 0 -117 19.5t-79.5 52t-45 76.5 t-14.5 93zM203 264q0 -55 38 -88t117 -33q82 0 149.5 47.5t84.5 126.5l24 129q-49 6 -83.5 10.5t-71.5 6.5q-51 0 -98.5 -11.5t-82 -35t-56 -61.5t-21.5 -91zM813 561q27 -2 51.5 -3t48.5 -1q154 0 226.5 50t72.5 143q0 53 -40.5 85.5t-110.5 32.5q-59 0 -99 -20.5t-69 -60 t-47.5 -97t-32.5 -129.5z" />
<glyph unicode="&#xe7;" horiz-adv-x="780" d="M59 303q0 59 8.5 118.5t18.5 119.5q18 96 52 184t89.5 154.5t133 106.5t182.5 40q109 0 186.5 -55.5t93.5 -159.5l-151 -74q-10 68 -49 100.5t-99 32.5q-63 0 -109 -28.5t-79 -76.5t-54.5 -110.5t-33.5 -128.5q-10 -47 -16.5 -95t-6.5 -91q0 -102 37 -149.5t129 -47.5 q59 0 111.5 35t79.5 94l139 -77q-51 -88 -139 -146.5t-211 -60.5l-39 -84q45 -4 75.5 -17.5t48 -33t24.5 -42t7 -44.5q0 -31 -12 -65t-39.5 -61.5t-70.5 -46t-103 -18.5h-29.5t-45 3t-52 9t-49.5 19l41 86q35 -18 70.5 -23.5t62.5 -5.5q41 0 74 21.5t33 62.5q0 76 -95 76 h-20l-31 31l66 139q-70 12 -114 43t-69.5 73t-35 92t-9.5 101z" />
<glyph unicode="&#xe8;" horiz-adv-x="847" d="M68 324q0 106 21.5 230t74.5 228.5t141 174t223 69.5q141 0 221 -66.5t80 -183.5q0 -82 -29.5 -148.5t-91 -114.5t-155.5 -73.5t-223 -25.5q-23 0 -50.5 1t-52.5 3q-6 -43 -6 -86q0 -37 7.5 -72t23.5 -60.5t46 -41t75 -15.5q27 0 57.5 9.5t60 25t55 37t42.5 45.5l135 -74 q-59 -88 -149.5 -143t-217.5 -55q-84 0 -140 27.5t-89 73.5t-46 107.5t-13 127.5zM254 561q23 -2 47.5 -3t46.5 -1q174 0 247 56.5t73 140.5q0 53 -41 86.5t-113 33.5q-106 0 -168.5 -83.5t-91.5 -229.5zM348 1477l137 57l148 -369l-88 -39z" />
<glyph unicode="&#xe9;" horiz-adv-x="847" d="M68 324q0 106 21.5 230t74.5 228.5t141 174t223 69.5q141 0 221 -66.5t80 -183.5q0 -82 -29.5 -148.5t-91 -114.5t-155.5 -73.5t-223 -25.5q-23 0 -50.5 1t-52.5 3q-6 -43 -6 -86q0 -37 7.5 -72t23.5 -60.5t46 -41t75 -15.5q27 0 57.5 9.5t60 25t55 37t42.5 45.5l135 -74 q-59 -88 -149.5 -143t-217.5 -55q-84 0 -140 27.5t-89 73.5t-46 107.5t-13 127.5zM254 561q23 -2 47.5 -3t46.5 -1q174 0 247 56.5t73 140.5q0 53 -41 86.5t-113 33.5q-106 0 -168.5 -83.5t-91.5 -229.5zM469 1171l213 355l145 -51l-266 -342z" />
<glyph unicode="&#xea;" horiz-adv-x="847" d="M68 324q0 106 21.5 230t74.5 228.5t141 174t223 69.5q141 0 221 -66.5t80 -183.5q0 -82 -29.5 -148.5t-91 -114.5t-155.5 -73.5t-223 -25.5q-23 0 -50.5 1t-52.5 3q-6 -43 -6 -86q0 -37 7.5 -72t23.5 -60.5t46 -41t75 -15.5q27 0 57.5 9.5t60 25t55 37t42.5 45.5l135 -74 q-59 -88 -149.5 -143t-217.5 -55q-84 0 -140 27.5t-89 73.5t-46 107.5t-13 127.5zM240 1198l344 299h102l217 -295l-88 -69l-201 210l-309 -213zM254 561q23 -2 47.5 -3t46.5 -1q174 0 247 56.5t73 140.5q0 53 -41 86.5t-113 33.5q-106 0 -168.5 -83.5t-91.5 -229.5z" />
<glyph unicode="&#xeb;" horiz-adv-x="847" d="M68 324q0 106 21.5 230t74.5 228.5t141 174t223 69.5q141 0 221 -66.5t80 -183.5q0 -82 -29.5 -148.5t-91 -114.5t-155.5 -73.5t-223 -25.5q-23 0 -50.5 1t-52.5 3q-6 -43 -6 -86q0 -37 7.5 -72t23.5 -60.5t46 -41t75 -15.5q27 0 57.5 9.5t60 25t55 37t42.5 45.5l135 -74 q-59 -88 -149.5 -143t-217.5 -55q-84 0 -140 27.5t-89 73.5t-46 107.5t-13 127.5zM254 561q23 -2 47.5 -3t46.5 -1q174 0 247 56.5t73 140.5q0 53 -41 86.5t-113 33.5q-106 0 -168.5 -83.5t-91.5 -229.5zM336 1214l35 172h157l-32 -172h-160zM674 1214l35 172h157l-32 -172 h-160z" />
<glyph unicode="&#xec;" horiz-adv-x="399" d="M76 0l196 1014h164l-196 -1014h-164zM141 1477l138 57l147 -369l-88 -39z" />
<glyph unicode="&#xed;" horiz-adv-x="399" d="M35 0l196 1014h164l-196 -1014h-164zM274 1171l213 355l146 -51l-266 -342z" />
<glyph unicode="&#xee;" horiz-adv-x="524" d="M84 1198l344 299h102l218 -295l-89 -69l-200 210l-309 -213zM106 0l197 1014h164l-197 -1014h-164z" />
<glyph unicode="&#xef;" horiz-adv-x="471" d="M78 0l196 1014h164l-196 -1014h-164zM139 1214l35 172h158l-33 -172h-160zM477 1214l35 172h158l-33 -172h-160z" />
<glyph unicode="&#xf0;" horiz-adv-x="903" d="M72 270q0 59 6 123t16 119q16 106 53 196.5t80 145.5q51 66 121 95.5t150 29.5q31 0 63.5 -8t63 -23.5t56.5 -37t40 -50.5h6q8 37 10 71t2 68q0 43 -5 83t-17 75l-144 -92l-41 65l152 99q-37 57 -95.5 87t-131.5 38q12 35 22 67.5t23 67.5q68 -6 119 -22.5t90 -40 t66.5 -51t45.5 -56.5l170 108l41 -67l-176 -113q33 -84 33 -213q0 -104 -17.5 -265t-64.5 -345q-25 -98 -61.5 -179t-89 -138.5t-123 -88t-166.5 -30.5q-80 0 -136.5 23.5t-92.5 62.5t-52 90t-16 106zM227 313q0 -84 39 -130t125 -46q57 0 98 23.5t72 66.5q18 27 36.5 76 t34 108.5t26 126t10.5 126.5q0 82 -46 124.5t-116 42.5q-96 0 -154 -67q-23 -27 -45 -78t-39.5 -113.5t-29 -131t-11.5 -128.5z" />
<glyph unicode="&#xf1;" d="M20 0l197 1014h164l-23 -113h7q57 66 123.5 94.5t134.5 28.5q57 0 103 -19.5t78 -54.5t46 -85t6 -113q0 -10 -12.5 -80t-32.5 -175.5t-46 -235.5t-50 -261h-166q23 115 46 231.5t41.5 214t31 162t12.5 72.5q6 37 3 69.5t-19.5 58.5t-48 40t-83.5 14q-88 0 -146 -61.5 t-77 -153.5l-127 -647h-162zM256 1245q47 80 106.5 123t118.5 43q33 0 65 -13.5t62.5 -28.5t59 -28.5t55.5 -13.5q29 0 57.5 18.5t65.5 65.5l88 -57q-49 -94 -108.5 -131t-112.5 -37q-35 0 -67 12t-62.5 27.5t-59 29t-55.5 13.5q-31 0 -56.5 -21.5t-64.5 -62.5z" />
<glyph unicode="&#xf2;" horiz-adv-x="878" d="M74 285q0 80 10 153.5t25 139.5q20 96 53 178t76 135q110 133 290 133q80 0 138.5 -24.5t96.5 -66.5t56.5 -98.5t18.5 -119.5q0 -61 -11.5 -133t-23.5 -133q-23 -111 -55.5 -196t-82 -144.5t-120 -90t-168.5 -30.5q-84 0 -141.5 24.5t-93.5 66.5t-52 95t-16 111zM229 336 q-2 -37 3.5 -73t22.5 -63.5t50 -45t86 -17.5q86 0 129 44t72 116q18 45 33.5 99.5t27 109.5t17.5 106.5t6 92.5q0 86 -44 129t-116 43q-86 0 -141 -62q-33 -35 -59.5 -94t-47.5 -135q-16 -59 -25.5 -128t-13.5 -122zM377 1477l137 57l148 -369l-89 -39z" />
<glyph unicode="&#xf3;" horiz-adv-x="878" d="M74 285q0 80 10 153.5t25 139.5q20 96 53 178t76 135q110 133 290 133q80 0 138.5 -24.5t96.5 -66.5t56.5 -98.5t18.5 -119.5q0 -61 -11.5 -133t-23.5 -133q-23 -111 -55.5 -196t-82 -144.5t-120 -90t-168.5 -30.5q-84 0 -141.5 24.5t-93.5 66.5t-52 95t-16 111zM229 336 q-2 -37 3.5 -73t22.5 -63.5t50 -45t86 -17.5q86 0 129 44t72 116q18 45 33.5 99.5t27 109.5t17.5 106.5t6 92.5q0 86 -44 129t-116 43q-86 0 -141 -62q-33 -35 -59.5 -94t-47.5 -135q-16 -59 -25.5 -128t-13.5 -122zM522 1171l213 355l146 -51l-267 -342z" />
<glyph unicode="&#xf4;" horiz-adv-x="878" d="M74 285q0 80 10 153.5t25 139.5q20 96 53 178t76 135q110 133 290 133q80 0 138.5 -24.5t96.5 -66.5t56.5 -98.5t18.5 -119.5q0 -61 -11.5 -133t-23.5 -133q-23 -111 -55.5 -196t-82 -144.5t-120 -90t-168.5 -30.5q-84 0 -141.5 24.5t-93.5 66.5t-52 95t-16 111zM229 336 q-2 -37 3.5 -73t22.5 -63.5t50 -45t86 -17.5q86 0 129 44t72 116q18 45 33.5 99.5t27 109.5t17.5 106.5t6 92.5q0 86 -44 129t-116 43q-86 0 -141 -62q-33 -35 -59.5 -94t-47.5 -135q-16 -59 -25.5 -128t-13.5 -122zM260 1198l344 299h103l217 -295l-88 -69l-201 210 l-309 -213z" />
<glyph unicode="&#xf5;" horiz-adv-x="878" d="M74 285q0 80 10 153.5t25 139.5q20 96 53 178t76 135q110 133 290 133q80 0 138.5 -24.5t96.5 -66.5t56.5 -98.5t18.5 -119.5q0 -61 -11.5 -133t-23.5 -133q-23 -111 -55.5 -196t-82 -144.5t-120 -90t-168.5 -30.5q-84 0 -141.5 24.5t-93.5 66.5t-52 95t-16 111zM229 336 q-2 -37 3.5 -73t22.5 -63.5t50 -45t86 -17.5q86 0 129 44t72 116q18 45 33.5 99.5t27 109.5t17.5 106.5t6 92.5q0 86 -44 129t-116 43q-86 0 -141 -62q-33 -35 -59.5 -94t-47.5 -135q-16 -59 -25.5 -128t-13.5 -122zM240 1245q47 80 106.5 123t118.5 43q33 0 64.5 -13.5 t62.5 -28.5t59.5 -28.5t55.5 -13.5q29 0 57.5 18.5t64.5 65.5l89 -57q-49 -94 -108.5 -131t-113.5 -37q-35 0 -66.5 12t-62 27.5t-59.5 29t-55 13.5q-31 0 -56.5 -21.5t-64.5 -62.5z" />
<glyph unicode="&#xf6;" horiz-adv-x="878" d="M74 285q0 80 10 153.5t25 139.5q20 96 53 178t76 135q110 133 290 133q80 0 138.5 -24.5t96.5 -66.5t56.5 -98.5t18.5 -119.5q0 -61 -11.5 -133t-23.5 -133q-23 -111 -55.5 -196t-82 -144.5t-120 -90t-168.5 -30.5q-84 0 -141.5 24.5t-93.5 66.5t-52 95t-16 111zM229 336 q-2 -37 3.5 -73t22.5 -63.5t50 -45t86 -17.5q86 0 129 44t72 116q18 45 33.5 99.5t27 109.5t17.5 106.5t6 92.5q0 86 -44 129t-116 43q-86 0 -141 -62q-33 -35 -59.5 -94t-47.5 -135q-16 -59 -25.5 -128t-13.5 -122zM338 1214l35 172h157l-32 -172h-160zM676 1214l35 172 h157l-32 -172h-160z" />
<glyph unicode="&#xf7;" d="M59 539l27 127h832l-25 -127h-834zM309 233q0 27 11.5 51.5t30 43t42.5 29t51 10.5q41 0 67 -26t26 -65q0 -27 -12.5 -51t-31 -42.5t-43 -29t-49.5 -10.5q-41 0 -66.5 26t-25.5 64zM442 928q0 53 42.5 93t95.5 40q41 0 66.5 -25.5t25.5 -66.5q0 -53 -43 -93t-94 -40 q-41 0 -67 26.5t-26 65.5z" />
<glyph unicode="&#xf8;" horiz-adv-x="878" d="M43 6l76 103q-25 37 -35 83t-10 93q0 80 10 153.5t25 139.5q20 96 53 178t76 135q110 133 290 133q72 0 124.5 -18.5t90.5 -53.5l72 99l70 -47l-88 -119q23 -37 32 -80t9 -90q0 -61 -11.5 -133t-23.5 -133q-23 -111 -55.5 -196t-82 -144.5t-120 -90t-168.5 -30.5 q-68 0 -118 15t-85 44l-65 -88zM229 336q-4 -43 2 -74l412 557q-43 58 -127 58q-86 0 -141 -62q-33 -35 -59.5 -94t-47.5 -135q-16 -59 -25.5 -128t-13.5 -122zM270 178q37 -41 121 -41q86 0 129 44t72 116q18 45 33.5 99.5t27 109.5t17.5 106.5t6 92.5v16z" />
<glyph unicode="&#xf9;" horiz-adv-x="909" d="M78 260q0 10 12 80t32.5 175.5t46.5 235.5t50 263h164q-23 -115 -45.5 -232.5t-40.5 -215t-30.5 -162t-12.5 -72.5q-6 -37 -4 -70t15.5 -58.5t43 -41t82.5 -15.5q43 0 82 20.5t70.5 54.5t53 78t32.5 91l123 623h161l-196 -1014h-164l22 109h-6q-57 -66 -123.5 -93.5 t-132.5 -27.5q-127 0 -189.5 73.5t-45.5 198.5zM369 1477l137 57l147 -369l-88 -39z" />
<glyph unicode="&#xfa;" horiz-adv-x="909" d="M78 260q0 10 12 80t32.5 175.5t46.5 235.5t50 263h164q-23 -115 -45.5 -232.5t-40.5 -215t-30.5 -162t-12.5 -72.5q-6 -37 -4 -70t15.5 -58.5t43 -41t82.5 -15.5q43 0 82 20.5t70.5 54.5t53 78t32.5 91l123 623h161l-196 -1014h-164l22 109h-6q-57 -66 -123.5 -93.5 t-132.5 -27.5q-127 0 -189.5 73.5t-45.5 198.5zM504 1171l213 355l145 -51l-266 -342z" />
<glyph unicode="&#xfb;" horiz-adv-x="909" d="M78 260q0 10 12 80t32.5 175.5t46.5 235.5t50 263h164q-23 -115 -45.5 -232.5t-40.5 -215t-30.5 -162t-12.5 -72.5q-6 -37 -4 -70t15.5 -58.5t43 -41t82.5 -15.5q43 0 82 20.5t70.5 54.5t53 78t32.5 91l123 623h161l-196 -1014h-164l22 109h-6q-57 -66 -123.5 -93.5 t-132.5 -27.5q-127 0 -189.5 73.5t-45.5 198.5zM258 1198l344 299h103l217 -295l-88 -69l-201 210l-309 -213z" />
<glyph unicode="&#xfc;" horiz-adv-x="909" d="M78 260q0 10 12 80t32.5 175.5t46.5 235.5t50 263h164q-23 -115 -45.5 -232.5t-40.5 -215t-30.5 -162t-12.5 -72.5q-6 -37 -4 -70t15.5 -58.5t43 -41t82.5 -15.5q43 0 82 20.5t70.5 54.5t53 78t32.5 91l123 623h161l-196 -1014h-164l22 109h-6q-57 -66 -123.5 -93.5 t-132.5 -27.5q-127 0 -189.5 73.5t-45.5 198.5zM352 1214l35 172h158l-33 -172h-160zM690 1214l35 172h158l-33 -172h-160z" />
<glyph unicode="&#xfd;" horiz-adv-x="768" d="M-133 -268q106 14 191 68.5t147 156.5l-115 1057h170l37 -455q8 -88 13 -201.5t1 -214.5h6q49 90 96.5 198t91.5 221.5t85 229t76 222.5h170q-61 -182 -117.5 -336t-114 -290t-117 -258t-129.5 -236q-92 -150 -211.5 -230t-273.5 -78zM414 1171l213 355l145 -51 l-266 -342z" />
<glyph unicode="&#xfe;" horiz-adv-x="886" d="M-63 -403q23 117 51 265t60 312t65.5 336t65.5 336t61.5 312.5t52.5 266.5h162l-99 -505q2 0 2 -1t2 -1q51 51 109.5 79.5t140.5 28.5q106 0 170 -65.5t64 -198.5q0 -68 -8.5 -146.5t-20.5 -144.5q-18 -100 -47 -187t-76 -152.5t-116.5 -103.5t-169.5 -38 q-61 0 -117 27.5t-90 80.5q-2 0 -2 -1t-2 -1q-23 -125 -47.5 -250t-49.5 -249h-161zM252 311q0 -72 36 -115.5t105 -43.5q49 0 92 19t76 67q29 41 51.5 116.5t38.5 159.5q10 47 14.5 89t6.5 77q0 37 -5 70.5t-21.5 59.5t-45.5 40t-76 14q-78 0 -128 -52t-70 -114 q-25 -78 -43.5 -157.5t-26.5 -153.5q-2 -18 -3 -37.5t-1 -38.5z" />
<glyph unicode="&#xff;" horiz-adv-x="768" d="M-133 -268q106 14 191 68.5t147 156.5l-115 1057h170l37 -455q8 -88 13 -201.5t1 -214.5h6q49 90 96.5 198t91.5 221.5t85 229t76 222.5h170q-61 -182 -117.5 -336t-114 -290t-117 -258t-129.5 -236q-92 -150 -211.5 -230t-273.5 -78zM225 1214l35 172h158l-33 -172h-160 zM563 1214l35 172h158l-33 -172h-160z" />
<glyph unicode="&#x131;" horiz-adv-x="399" d="M35 0l196 1014h164l-196 -1014h-164z" />
<glyph unicode="&#x152;" horiz-adv-x="1427" d="M104 397l107 609q16 90 54 168.5t95.5 138t135 93.5t176.5 34q78 0 149 -17q190 0 366.5 1t366.5 1l-30 -157h-553q-23 -119 -45.5 -236t-44.5 -233h495l-30 -154h-496q-23 -123 -47.5 -244.5t-48.5 -244.5h577q-6 -39 -13 -78t-15 -78h-719q-59 -12 -129 -12 q-102 0 -176 32.5t-117 88t-57.5 130t-0.5 158.5zM266.5 350q-2.5 -61 16 -107t63.5 -73t129 -27q31 0 59.5 5.5t53.5 17.5l211 1085q-49 33 -125 33t-128 -25.5t-88 -71.5t-57.5 -108.5t-35.5 -136.5l-84 -461q-12 -70 -14.5 -131z" />
<glyph unicode="&#x153;" horiz-adv-x="1411" d="M70 285q0 80 10 153.5t24 139.5q20 96 53 178t76 135q111 133 291 133q104 0 170 -39t101 -104q53 66 129 105.5t178 39.5q141 0 221 -66.5t80 -183.5q0 -82 -30 -148.5t-91 -114.5t-155.5 -73.5t-223.5 -25.5q-23 0 -50.5 1t-51.5 3q-6 -49 -6 -97.5t14 -88t46 -64.5 t91 -25q27 0 57.5 9.5t60.5 25t55.5 37t41.5 45.5l135 -74q-59 -88 -149 -143t-217 -55q-104 0 -163.5 39t-88.5 104q-51 -70 -124 -106.5t-181 -36.5q-84 0 -141.5 24.5t-93.5 66.5t-52 95t-16 111zM225 336q-2 -37 3 -73t22.5 -63.5t50.5 -45t86 -17.5q86 0 129 44t72 116 q18 45 33.5 99.5t26.5 109.5t17.5 106.5t6.5 92.5q0 86 -44 129t-116 43q-86 0 -141 -62q-33 -35 -59.5 -94t-47.5 -135q-16 -59 -25.5 -128t-13.5 -122zM827 561q23 -2 47.5 -3t47.5 -1q174 0 246.5 56.5t72.5 140.5q0 53 -41 86.5t-113 33.5q-106 0 -168.5 -83.5 t-91.5 -229.5z" />
<glyph unicode="&#x178;" horiz-adv-x="894" d="M209 1425h166l98 -481q8 -29 17.5 -73t17.5 -78l10 -2l148 251q55 98 111.5 192.5t111.5 190.5h182l-510 -829l-117 -596h-163l116 596q-47 209 -94 415t-94 414zM399 1532l33 172h160l-33 -172h-160zM741 1532l33 172h160l-33 -172h-160z" />
<glyph unicode="&#x192;" d="M-29 -147q4 10 11.5 28.5t15.5 38t16.5 36.5t12.5 28q29 -12 56.5 -17.5t49.5 -5.5q78 0 118 70.5t68 199.5l107 486h-160l13 145h180l37 162q14 70 40.5 142.5t69.5 131t107.5 95.5t154.5 37q84 0 144 -27q-4 -10 -11.5 -30.5t-14.5 -44t-14 -44t-9 -31.5 q-25 10 -58 15.5t-59 5.5q-41 0 -72 -19.5t-53.5 -51.5t-37.5 -76t-26 -93l-39 -172h193l-12 -145h-213l-105 -484q-20 -98 -47.5 -174.5t-67.5 -131t-95.5 -83t-131.5 -28.5q-39 0 -86 10t-82 27z" />
<glyph unicode="&#x2c6;" horiz-adv-x="882" d="M268 1198l344 299h103l217 -295l-88 -69l-201 210l-309 -213z" />
<glyph unicode="&#x2c7;" horiz-adv-x="882" d="M315 1432l86 67l213 -209l299 209l62 -72l-330 -294h-102z" />
<glyph unicode="&#x2d8;" horiz-adv-x="903" d="M350 1432h137q-2 -20 3.5 -44t19.5 -44.5t37.5 -34t58.5 -13.5t63.5 12.5t50 32t36 44t18.5 47.5h150q-12 -47 -37 -94.5t-65 -85.5t-95 -61.5t-129 -23.5q-76 0 -126 21.5t-80 58.5t-39 85t-3 100z" />
<glyph unicode="&#x2d9;" horiz-adv-x="847" d="M459 1202l33 172h159l-33 -172h-159z" />
<glyph unicode="&#x2da;" horiz-adv-x="876" d="M438 1272q0 45 18.5 86t50.5 72.5t74 50t91 18.5q72 0 117 -45t45 -113q0 -49 -20.5 -91t-53.5 -72.5t-75 -47t-85 -16.5q-72 0 -117 45t-45 113zM528 1286q0 -39 23.5 -62.5t62.5 -23.5q49 0 88 37t39 90q0 35 -24.5 59.5t-63.5 24.5q-49 0 -87 -38t-38 -87z" />
<glyph unicode="&#x2db;" horiz-adv-x="692" d="M276 -223q0 49 26 102t89 125h109l2 -4q-94 -109 -94 -186q0 -66 75 -66q43 0 115 37l18 -102q-41 -23 -90 -37.5t-96 -14.5q-72 0 -113 42t-41 104z" />
<glyph unicode="&#x2dc;" horiz-adv-x="874" d="M281 1245q47 80 106.5 123t118.5 43q33 0 64.5 -13.5t62.5 -28.5t59.5 -28.5t55.5 -13.5q29 0 57.5 18.5t64.5 65.5l88 -57q-49 -94 -108 -131t-113 -37q-35 0 -66.5 12t-62 27.5t-59.5 29t-55 13.5q-31 0 -56.5 -21.5t-64.5 -62.5z" />
<glyph unicode="&#x2dd;" horiz-adv-x="876" d="M375 1171l213 355l145 -51l-268 -342zM610 1171l213 355l146 -51l-267 -342z" />
<glyph unicode="&#x3a9;" horiz-adv-x="1005" d="M-18 0q8 39 14 79t14 81h158q-45 35 -62.5 85t-17.5 111q0 33 5 82t18 119l63 330q10 59 26.5 118.5t39.5 122.5q51 141 161.5 225.5t274.5 84.5q90 0 156.5 -27t110.5 -73t65.5 -111.5t21.5 -141.5q0 -20 -4 -70t-14 -100q-12 -70 -27.5 -146.5t-32.5 -162.5 q-10 -59 -24.5 -121.5t-34.5 -128.5q-23 -63 -56.5 -111t-80.5 -83v-2h137l-31 -160h-352l39 188q53 16 92 53.5t61 86.5q27 68 45.5 133t30.5 129l64 323q10 41 13 74t3 68q0 94 -48 160.5t-161 66.5q-86 0 -146.5 -44t-90.5 -110q-45 -117 -66 -223l-76 -391 q-10 -41 -13 -72.5t-3 -54.5q0 -63 24.5 -119.5t90.5 -79.5l-37 -188h-350z" />
<glyph unicode="&#x3c0;" horiz-adv-x="927" d="M37 0l196 1014h693l-197 -1014h-164l170 866h-368l-168 -866h-162z" />
<glyph unicode="&#x401;" horiz-adv-x="919" d="M49 0l277 1425h747l-33 -157h-577l-90 -469h495l-28 -154h-496l-96 -487h577l-28 -158h-748zM467 1532l33 172h159l-32 -172h-160zM809 1532l33 172h159l-32 -172h-160z" />
<glyph unicode="&#x402;" horiz-adv-x="1165" d="M129 1272l29 151h901l-29 -151h-414l-88 -426h7q55 53 135 85t155 32q147 0 223 -91.5t64 -261.5q-10 -150 -39 -268.5t-86 -200.5t-146 -126t-223 -44h-27t-30 2l29 144h16q100 0 161.5 39t96.5 104.5t50.5 149.5t25.5 176q4 47 -2 88t-25.5 70.5t-55.5 47t-89 17.5 q-96 0 -171 -65.5t-116 -157.5l-112 -586h-172l247 1272h-315z" />
<glyph unicode="&#x403;" horiz-adv-x="892" d="M49 0l277 1425h731l-33 -159h-561l-244 -1266h-170zM559 1571l344 239l88 -120l-379 -199z" />
<glyph unicode="&#x404;" horiz-adv-x="950" d="M94 328q0 39 10.5 109.5t22.5 135.5q16 86 34.5 174.5t35.5 174.5q18 96 48.5 188t85 165t138.5 117t209 44q176 0 264 -86t96 -228l-172 -51q0 92 -49 147.5t-141 55.5q-68 0 -114 -19.5t-77.5 -52.5t-52 -74t-35.5 -84q-18 -59 -32.5 -120.5t-24.5 -124.5h412l-29 -158 h-412q-4 -23 -8 -44.5t-8 -43.5q-10 -49 -19.5 -102.5t-9.5 -98.5t9.5 -82t32 -64.5t59 -43t94.5 -15.5q96 0 167.5 54.5t106.5 158.5l164 -63q-53 -150 -165.5 -229.5t-278.5 -79.5q-184 0 -272.5 95t-88.5 245z" />
<glyph unicode="&#x405;" horiz-adv-x="966" d="M35 246l160 80q29 -72 87 -123t169 -51q74 0 126 25.5t85.5 66.5t50 91t16.5 101q0 47 -13.5 80t-39 55.5t-63.5 40t-87 33.5q-90 29 -151.5 60.5t-100 71.5t-56 89t-17.5 115q0 104 31.5 189t92 144.5t144.5 91.5t188 32q72 0 130.5 -18.5t102.5 -50.5t73.5 -72 t44.5 -83l-154 -92q-27 72 -86 111t-135 39q-61 0 -108.5 -21.5t-79 -57.5t-48 -84t-16.5 -101q0 -51 20.5 -84t56.5 -56.5t86 -41t109 -38.5q147 -51 206 -129.5t59 -199.5q0 -100 -32 -187.5t-94.5 -151t-153.5 -99t-208 -35.5q-166 0 -264 71.5t-131 188.5z" />
<glyph unicode="&#x406;" horiz-adv-x="438" d="M51 0l279 1425h170l-277 -1425h-172z" />
<glyph unicode="&#x407;" horiz-adv-x="444" d="M51 0l279 1425h170l-277 -1425h-172zM186 1554l33 172h162l-35 -172h-160zM528 1554l33 172h160l-33 -172h-160z" />
<glyph unicode="&#x408;" horiz-adv-x="821" d="M-43 133l131 98q25 -39 70 -63.5t92 -24.5q94 0 161.5 51.5t96.5 186.5l203 1044h170l-205 -1052q-23 -109 -60.5 -182.5t-93 -118.5t-125 -64.5t-151.5 -19.5q-98 0 -173 37.5t-116 107.5z" />
<glyph unicode="&#x409;" horiz-adv-x="1540" d="M-61 102q53 25 102 58t90 90t76 144t61 222l158 809h629l-115 -596h213q174 0 266 -83.5t92 -231.5q0 -106 -31.5 -200.5t-92 -164t-148.5 -109.5t-201 -40h-428l246 1270h-301l-115 -598q-35 -182 -80 -304t-100 -202t-123.5 -125t-150.5 -74zM809 160h231 q76 0 132.5 28.5t94.5 74.5t56 105.5t18 120.5q0 88 -52 137.5t-156 49.5h-224z" />
<glyph unicode="&#x40a;" horiz-adv-x="1550" d="M20 0l277 1425h170l-119 -610h434l119 610h168l-119 -610h213q174 0 266.5 -84t92.5 -231q0 -106 -31 -197.5t-89.5 -159t-145.5 -105.5t-199 -38h-432l127 662h-435l-127 -662h-170zM823 160h230q76 0 132 25.5t93 69.5t55.5 101.5t18.5 118.5q0 86 -52.5 135t-156.5 49 h-223z" />
<glyph unicode="&#x40b;" horiz-adv-x="1206" d="M127 1274l29 151h909l-29 -151h-420l-81 -428h6q33 31 71.5 53.5t78.5 36.5t79 20.5t72 6.5q152 0 226.5 -84t45.5 -232l-125 -647h-172l115 592q8 43 8 82t-16.5 68.5t-52 46t-97.5 16.5q-49 0 -94 -17.5t-82 -46t-65.5 -65.5t-45.5 -78l-118 -598h-172l247 1274h-317z " />
<glyph unicode="&#x40c;" horiz-adv-x="1011" d="M43 0l274 1423h168l-118 -620h147q31 0 66.5 6t72.5 27.5t74 63.5t70 112l192 411h166l-192 -417q-47 -104 -107.5 -175t-130.5 -94q78 -29 108.5 -101.5t38.5 -178.5l29 -457h-164l-24 428q-4 72 -22.5 116t-48.5 67.5t-65.5 30.5t-74.5 7h-166l-125 -649h-168z M631 1571l344 239l88 -120l-379 -199z" />
<glyph unicode="&#x40e;" horiz-adv-x="927" d="M39 -10q6 35 14 71.5t15 73.5h94q43 0 84 30t84 107l35 68q-39 272 -77 540.5t-75 542.5h170q16 -117 28.5 -232.5t28.5 -232.5q10 -102 20.5 -201.5t22.5 -201.5q2 0 4 1t5 1l165 332l258 534h177l-568 -1104q-55 -111 -102 -175t-92 -99t-88 -45t-88 -10h-115z M403 1712h138q-2 -20 3 -43.5t19.5 -44t38 -34t57.5 -13.5q35 0 64 12.5t50.5 31.5t35.5 44t18 47h150q-12 -47 -37 -94t-64.5 -85t-95 -61.5t-129.5 -23.5q-76 0 -126 21.5t-79.5 58.5t-39 85t-3.5 99z" />
<glyph unicode="&#x40f;" horiz-adv-x="1062" d="M49 0l275 1425h168l-244 -1265h463l243 1265h170l-274 -1425h-313l-60 -305h-172l60 305h-316z" />
<glyph unicode="&#x410;" horiz-adv-x="1005" d="M-66 0l687 1425h153l133 -1425h-170l-22 324h-453l-149 -324h-179zM330 477h375l-29 369l-23 325h-6l-141 -321z" />
<glyph unicode="&#x411;" horiz-adv-x="1011" d="M47 0l277 1425h671l-30 -159h-502l-84 -437h219q80 0 145.5 -22.5t110.5 -64.5t69.5 -98t24.5 -124q0 -106 -30.5 -200.5t-90 -165t-145.5 -112.5t-199 -42h-436zM248 160h229q150 0 223.5 89.5t77.5 239.5q0 80 -52 133.5t-157 53.5h-221z" />
<glyph unicode="&#x412;" horiz-adv-x="1024" d="M47 0l279 1425h381q160 0 248.5 -72.5t88.5 -226.5q0 -158 -65 -252t-188 -133q0 -2 -1.5 -3t-1.5 -3q86 -29 122 -100.5t36 -169.5q-8 -133 -52 -222t-114.5 -143.5t-163 -77t-196.5 -22.5h-373zM246 156h254q68 0 121 27.5t87.5 72.5t53 104.5t18.5 122.5 q0 88 -53 135.5t-149 47.5h-232q-25 -129 -49.5 -255t-50.5 -255zM375 813h164q68 0 129 14.5t108 48t75 89t28 135.5q0 88 -57.5 130t-149.5 42h-207z" />
<glyph unicode="&#x413;" horiz-adv-x="892" d="M49 0l277 1425h731l-33 -159h-561l-244 -1266h-170z" />
<glyph unicode="&#x414;" horiz-adv-x="1165" d="M-115 -289q18 106 39 211t39 209l84 19q45 29 78 64.5t60.5 87.5t50 123t45.5 167l190 833h750q-61 -322 -123 -639t-125 -639h98q-20 -111 -40.5 -218t-43.5 -218h-156q16 72 28.5 144.5t29.5 144.5h-795l-55 -289h-154zM256 147h549q53 285 108.5 564.5t110.5 564.5 h-432l-158 -692q-37 -154 -76 -259.5t-102 -177.5z" />
<glyph unicode="&#x415;" horiz-adv-x="919" d="M49 0l277 1425h747l-33 -157h-577l-90 -469h495l-28 -154h-496l-96 -487h577l-28 -158h-748z" />
<glyph unicode="&#x416;" horiz-adv-x="1560" d="M-45 0l201 457q47 106 105 179t149 101q-59 23 -94 93.5t-40 175.5l-30 417h157l35 -411q4 -72 24.5 -113t50.5 -62.5t63.5 -27.5t64.5 -6h127l117 622h168l-117 -622h78q29 0 69.5 1t85.5 19.5t90.5 61.5t83.5 127l189 411h160q-47 -102 -93.5 -212.5t-97.5 -208 t-107.5 -170t-123.5 -95.5q76 -29 105.5 -101.5t37.5 -178.5l31 -457h-170l-25 428q-4 72 -22.5 115t-47 66.5t-64.5 31.5t-73 8h-137l-123 -649h-168l123 649h-84q-47 0 -91 -4t-87 -24.5t-84 -65.5t-78 -127l-186 -428h-172z" />
<glyph unicode="&#x417;" horiz-adv-x="917" d="M-6 287l160 55q8 -104 63 -149.5t156 -45.5q41 0 90 19.5t92 61.5t71.5 108.5t28.5 161.5q0 76 -40 125t-126 49h-133q6 37 13.5 74.5t15.5 74.5h127q55 0 100 21.5t77 60.5t50.5 92.5t18.5 114.5q0 43 -16.5 73.5t-44 50t-62.5 29t-72 9.5q-92 0 -161.5 -47t-110.5 -133 l-146 69q61 147 176.5 211t256.5 64q170 0 264 -78t94 -217q0 -49 -8 -105.5t-32 -110t-67 -100.5t-112 -73q0 -2 1 -3t1 -6q72 -35 95.5 -97t23.5 -128q0 -100 -29 -195.5t-89.5 -170t-152.5 -119.5t-217 -45q-74 0 -136 17.5t-109.5 54t-76 93t-34.5 134.5z" />
<glyph unicode="&#x418;" horiz-adv-x="1132" d="M49 0l277 1425h168l-203 -1046q2 0 3 -1t3 -1q59 84 118.5 167t119.5 169q127 180 253.5 356t253.5 356h154l-276 -1425h-168l202 1040q-2 0 -3 1t-3 1q-41 -59 -85 -117.5t-85 -117.5l-567 -807h-162z" />
<glyph unicode="&#x419;" horiz-adv-x="1132" d="M49 0l277 1425h168l-203 -1046q2 0 3 -1t3 -1q59 84 118.5 167t119.5 169q127 180 253.5 356t253.5 356h154l-276 -1425h-168l202 1040q-2 0 -3 1t-3 1q-41 -59 -85 -117.5t-85 -117.5l-567 -807h-162zM537 1759h137q-2 -20 3 -43.5t19.5 -44t38 -34t58.5 -13.5 t63.5 12.5t50 32t35.5 44t19 46.5h149q-12 -47 -36.5 -94t-64.5 -85t-95.5 -61.5t-129.5 -23.5q-76 0 -126 21.5t-79.5 58.5t-39 85t-2.5 99z" />
<glyph unicode="&#x41a;" horiz-adv-x="1009" d="M43 0l274 1423h168l-118 -620h147q31 0 66.5 6t72.5 27.5t74 63.5t70 112l192 411h166l-192 -417q-47 -104 -107.5 -175t-130.5 -94q78 -29 108.5 -101.5t38.5 -178.5l29 -457h-164l-24 428q-4 72 -22.5 116t-48.5 67.5t-65.5 30.5t-74.5 7h-166l-125 -649h-168z" />
<glyph unicode="&#x41b;" horiz-adv-x="1079" d="M-70 100q53 25 100.5 54.5t87.5 83t73.5 137.5t58.5 219l164 831h723l-277 -1425h-168l246 1270h-397l-121 -619q-35 -182 -78 -301t-96 -193.5t-119 -116.5t-147 -71z" />
<glyph unicode="&#x41c;" horiz-adv-x="1329" d="M49 0l277 1425h168l122 -551l72 -329h6l201 334l336 546h174l-279 -1425h-168l193 993h-8l-164 -274l-281 -440h-114l-109 448l-57 266h-6l-193 -993h-170z" />
<glyph unicode="&#x41d;" horiz-adv-x="1075" d="M49 0l277 1425h170l-123 -626h475l123 626h168l-277 -1425h-168l125 649h-475l-125 -649h-170z" />
<glyph unicode="&#x41e;" horiz-adv-x="1017" d="M96.5 273q-12.5 83 3.5 173l111 566q14 72 44 147.5t84 137t135 100.5t196 39q111 0 186.5 -39t119.5 -100.5t58.5 -138.5t-0.5 -154l-104 -588q-39 -207 -153.5 -317.5t-301.5 -110.5q-117 0 -196.5 37.5t-124.5 101t-57.5 146.5zM262 332q4 -53 26.5 -95t68.5 -67 t120 -25q109 0 181.5 68t95.5 186l116 605q6 33 3 78.5t-25.5 88.5t-70.5 73t-132 30q-70 0 -117 -27.5t-78.5 -67.5t-48 -87.5t-24.5 -85.5l-107 -564q-12 -57 -8 -110z" />
<glyph unicode="&#x41f;" horiz-adv-x="1062" d="M49 0l277 1425h800l-276 -1425h-168l246 1276h-463l-246 -1276h-170z" />
<glyph unicode="&#x420;" horiz-adv-x="978" d="M49 0l277 1425h393q164 0 255 -79.5t91 -233.5q0 -115 -30.5 -213t-92 -171t-153 -114t-209.5 -41h-250l-111 -573h-170zM360 733h228q76 0 133 26.5t95 73t56.5 107.5t18.5 133q0 92 -52.5 143.5t-158.5 51.5h-217z" />
<glyph unicode="&#x421;" horiz-adv-x="960" d="M94 328q0 39 10.5 109.5t22.5 135.5q16 86 34.5 174.5t35.5 174.5q18 96 48.5 188t85 165t138.5 117t209 44q176 0 264 -86t96 -228l-172 -51q0 92 -49 147.5t-141 55.5q-68 0 -114 -19.5t-77.5 -52.5t-52 -74t-35.5 -84q-35 -117 -56.5 -242.5t-45.5 -248.5 q-10 -49 -19.5 -102.5t-9.5 -98.5t9.5 -82t32 -64.5t59 -43t94.5 -15.5q96 0 167.5 54.5t106.5 158.5l164 -63q-53 -150 -165.5 -229.5t-278.5 -79.5q-184 0 -272.5 95t-88.5 245z" />
<glyph unicode="&#x422;" horiz-adv-x="815" d="M166 1272l31 153h811l-31 -153h-320l-247 -1272h-168l245 1272h-321z" />
<glyph unicode="&#x423;" horiz-adv-x="927" d="M39 -10q6 35 14 71.5t15 73.5h94q43 0 84 30t84 107l35 68q-39 272 -77 540.5t-75 542.5h170q16 -117 28.5 -232.5t28.5 -232.5q10 -102 20.5 -201.5t22.5 -201.5q2 0 4 1t5 1l165 332l258 534h177l-568 -1104q-55 -111 -102 -175t-92 -99t-88 -45t-88 -10h-115z" />
<glyph unicode="&#x424;" horiz-adv-x="1241" d="M121 524q0 111 14.5 209t42.5 185q66 203 200 315.5t335 120.5l16 71h170l-14 -71q88 -6 154.5 -39t111.5 -88.5t67.5 -129t22.5 -157.5q0 -102 -10 -185t-31 -163q-59 -227 -205.5 -347t-349.5 -130l-22 -115h-170l22 115h-2q-186 25 -269 127t-83 282zM289 545 q0 -129 48 -197.5t165 -81.5l182 936q-86 -4 -158.5 -53t-125 -135t-82 -205t-29.5 -264zM678 266q86 6 159.5 45t128 118t84 199t29.5 290q0 133 -57 205.5t-162 78.5z" />
<glyph unicode="&#x425;" horiz-adv-x="911" d="M-70 0l502 739l-199 686h177l135 -528l342 528h188l-469 -686l217 -739h-176l-151 578l-377 -578h-189z" />
<glyph unicode="&#x426;" horiz-adv-x="1095" d="M49 0l275 1425h168l-244 -1265h463l243 1265h170l-243 -1267h110l-86 -447h-157l55 289h-754z" />
<glyph unicode="&#x427;" horiz-adv-x="1005" d="M172 805q-4 74 12 158l84 462h166l-78 -409q-12 -61 -17 -117.5t8 -99.5t52 -68.5t115 -25.5q57 0 137 20t137 57l127 643h168l-276 -1425h-168q29 156 60.5 311.5t60.5 311.5q-35 -16 -75 -29.5t-79 -23t-73.5 -14.5t-59.5 -5q-106 0 -170.5 32.5t-95.5 90t-35 131.5z " />
<glyph unicode="&#x428;" horiz-adv-x="1521" d="M41 0l276 1425h166l-245 -1263h385l245 1263h168l-245 -1263h387l245 1263h168l-276 -1425h-1274z" />
<glyph unicode="&#x429;" horiz-adv-x="1560" d="M41 0l272 1425h168l-243 -1265h385l243 1265h166l-244 -1265h388l245 1265h168l-246 -1267h113l-86 -445h-158l58 287h-1229z" />
<glyph unicode="&#x42a;" horiz-adv-x="1208" d="M160 1266l30 159h529l-115 -596h213q174 0 266.5 -84t92.5 -231q0 -106 -31 -200.5t-91.5 -164t-147.5 -109.5t-199 -40h-433l246 1266h-360zM473 160h232q76 0 132 28.5t93 74.5t55.5 105.5t18.5 120.5q0 88 -51.5 137.5t-155.5 49.5h-224z" />
<glyph unicode="&#x42b;" horiz-adv-x="1347" d="M49 0q2 12 14.5 75.5t32 159t42 215t47 244.5t48 247t43 222.5t33 170t17.5 91.5h168q-29 -150 -57.5 -298t-57.5 -298h211q176 0 268 -83.5t92 -231.5q0 -131 -39 -227.5t-109.5 -160t-171 -95t-220.5 -31.5h-361zM248 158h229q70 0 125 22.5t94 63.5t58.5 97t19.5 122 q0 47 -10 86t-33.5 67.5t-62.5 44t-99 15.5h-221zM979 0l276 1425h170l-276 -1425h-170z" />
<glyph unicode="&#x42c;" horiz-adv-x="948" d="M18 0q2 12 14.5 75.5t32 159t42 215t47 244.5t48 247t43 222.5t33 170t17.5 91.5h168q-29 -150 -57.5 -298t-57.5 -298h211q176 0 268.5 -83.5t92.5 -231.5q0 -131 -37 -227.5t-103.5 -160t-159 -95t-200.5 -31.5h-402zM217 158h225q70 0 126.5 22.5t95 63.5t59 97 t20.5 122q0 47 -10 86t-33.5 67.5t-62.5 44t-98 15.5h-222z" />
<glyph unicode="&#x42d;" horiz-adv-x="921" d="M6 283l170 53q4 -84 54.5 -134t136.5 -50q61 0 106 19t79 52t56.5 74t36.5 84q18 66 33.5 132.5t30.5 135.5h-408l31 160h407l13 63q10 49 17 102.5t7 98.5q0 90 -53 147.5t-168 57.5q-166 0 -238 -186l-165 61q57 139 166.5 212t269.5 73q184 0 272 -95.5t88 -244.5 q0 -39 -10 -109.5t-23 -136.5q-16 -86 -34.5 -174t-34.5 -174q-18 -96 -49 -188.5t-85.5 -165t-138.5 -116.5t-208 -44q-170 0 -257.5 81t-101.5 212z" />
<glyph unicode="&#x42e;" horiz-adv-x="1357" d="M37 0l276 1425h168l-121 -626h177q14 68 29.5 135t31.5 131q20 74 50 141.5t78 118.5t120 81t176 30q90 0 157.5 -27t112.5 -73t67.5 -108.5t22.5 -135.5q0 -35 -6 -89.5t-16 -107.5q-4 -16 -13.5 -72.5t-21.5 -121t-23.5 -122t-15.5 -75.5q-29 -109 -57.5 -203 t-77.5 -163.5t-129 -109.5t-209 -40q-104 0 -178 32.5t-117 88t-56 130t-1 160.5q10 63 19 121t24 129h-172l-127 -649h-168zM625 342.5q-4 -57.5 12 -102.5t60 -73t130 -28q117 0 179.5 77.5t95.5 227.5q29 143 60.5 296t47.5 288q6 47 0 93t-27.5 82t-61.5 57.5t-101 21.5 q-72 0 -117 -24.5t-73.5 -61.5t-45 -82t-30.5 -84q-10 -35 -18.5 -67.5t-14.5 -67.5q-4 -12 -10 -47t-15.5 -80t-19.5 -94t-17.5 -93t-13.5 -78t-6 -44q-10 -59 -14 -116.5z" />
<glyph unicode="&#x42f;" horiz-adv-x="1040" d="M-8 0l166 428q18 47 38.5 88t45 75t56.5 59.5t73 39.5q-45 20 -74 50t-46.5 65t-24.5 75t-7 81q0 109 33 194.5t91 146t141 92t186 31.5h436l-275 -1425h-167l120 633h-168q-33 0 -71.5 -8.5t-77.5 -33t-76 -69.5t-65 -119l-154 -403h-180zM389 979q0 -98 56.5 -147.5 t152.5 -49.5h217l94 488h-237q-129 0 -206 -75t-77 -216z" />
<glyph unicode="&#x430;" horiz-adv-x="915" d="M74 291q0 55 8 117.5t18 115.5q20 102 51 193.5t78 159t115 107.5t160 40q68 0 125 -27.5t88 -81.5q2 0 2 1.5t2 1.5l20 96h160l-196 -1014h-162l18 94q-2 0 -3 1t-3 1q-51 -57 -101.5 -82.5t-134.5 -25.5q-125 0 -185 82t-60 221zM244 326q0 -35 6 -67t22.5 -56.5 t44 -38.5t72.5 -14q72 0 120 48t71 105q18 47 34.5 101.5t27.5 106.5t18.5 101.5t7.5 87.5q0 76 -36 119t-110 43q-49 0 -91 -21.5t-75 -72.5q-25 -37 -46 -104.5t-38 -141.5q-12 -59 -20 -109.5t-8 -86.5z" />
<glyph unicode="&#x431;" horiz-adv-x="888" d="M70 301q0 20 2 47t6 69t12 102.5t23 148.5q16 106 42.5 219.5t69.5 236.5q39 115 98.5 182.5t138.5 104.5t179 50.5t221 21.5l8 -135q-94 -10 -169.5 -18.5t-135 -33t-106.5 -72.5t-84 -139q-14 -35 -30.5 -83t-33.5 -123q2 -2 6 -2q51 59 120 80.5t124 21.5t98 -15.5 t75 -40t51.5 -57t29.5 -67.5q20 -78 14 -159t-18 -159q-18 -113 -50 -205t-83 -156.5t-126 -99t-179 -34.5h-2q-301 6 -301 315zM236 309q0 -37 6 -68.5t23.5 -55t48 -37t79.5 -13.5t84 13.5t64 48.5q35 35 60.5 106.5t41.5 153.5q10 47 17.5 104t7.5 107q0 72 -37 119 t-111 47q-76 0 -128 -40t-83 -110q-6 -14 -12 -30.5t-13.5 -40t-14.5 -56.5t-15 -80t-13 -88t-5 -80z" />
<glyph unicode="&#x432;" horiz-adv-x="880" d="M57 252q0 51 6.5 93t16.5 85l57 258q14 63 41 123.5t73 108t113.5 76t161.5 28.5q84 0 141.5 -21.5t92.5 -55.5t50 -75t15 -77q0 -78 -41 -142.5t-108 -87.5q74 -29 103.5 -80t29.5 -116q0 -51 -21.5 -118t-71.5 -125t-133 -98t-206 -40q-61 0 -118.5 13t-102.5 45 t-72 82t-27 124zM219 274q0 -51 36 -94t126 -43q70 0 119 23.5t80.5 58.5t47 75t15.5 75q0 59 -42 91t-142 32h-58l29 141h45q84 0 126 34.5t46 90.5q0 18 -5 38.5t-18.5 37t-40 26.5t-69.5 10q-61 0 -102 -23.5t-67 -60t-39 -79.5t-21 -80l-52 -260q-4 -18 -9 -45t-5 -48z " />
<glyph unicode="&#x433;" horiz-adv-x="821" d="M39 223q0 78 25.5 136.5t71.5 101.5t112.5 74.5t148.5 56.5q119 35 180.5 74t61.5 106q0 51 -38 74.5t-97 23.5q-70 0 -130.5 -28.5t-103.5 -85.5l-125 80q59 90 147.5 139t211.5 51q61 0 116.5 -13.5t96.5 -41t65.5 -71.5t24.5 -105q0 -70 -25.5 -122t-71.5 -93 t-109.5 -72t-141.5 -55q-51 -16 -97.5 -33t-81 -39.5t-55 -54t-20.5 -78.5q0 -109 164 -109q59 0 124.5 29t108.5 82l121 -84q-63 -90 -151.5 -135t-225.5 -45q-66 0 -122 14t-97 43t-64.5 74t-23.5 106z" />
<glyph unicode="&#x434;" horiz-adv-x="886" d="M66 293q0 59 9 121.5t21 120.5q23 104 56.5 184t68.5 123q51 66 115.5 102.5t159.5 36.5q49 0 111.5 -24.5t99.5 -88.5q8 4 8 11q10 57 14 107t4 67q0 53 -9 101t-33.5 84t-70 57.5t-114.5 23.5q-37 0 -80 -7t-84 -24l-33 133q59 20 112.5 28.5t106.5 8.5 q180 0 265.5 -102.5t85.5 -304.5q0 -43 -4.5 -107.5t-14.5 -141.5t-25.5 -166t-37.5 -181q-25 -102 -60 -188.5t-85 -149t-117.5 -97t-157.5 -34.5q-88 0 -147.5 27.5t-96.5 70.5t-52 98.5t-15 110.5zM223 317q0 -37 7.5 -69.5t25.5 -58t49 -40t80 -14.5q53 0 88 21.5 t64 56.5q25 29 48 80t40.5 110.5t29 122t15.5 113.5q4 82 -32 136t-134 54q-51 0 -89 -20.5t-69 -56.5q-25 -31 -47.5 -83.5t-38.5 -113.5t-26.5 -124.5t-10.5 -113.5z" />
<glyph unicode="&#x435;" horiz-adv-x="847" d="M68 324q0 106 21.5 230t74.5 228.5t141 174t223 69.5q141 0 221 -66.5t80 -183.5q0 -82 -29.5 -148.5t-91 -114.5t-155.5 -73.5t-223 -25.5q-23 0 -50.5 1t-52.5 3q-6 -43 -6 -86q0 -37 7.5 -72t23.5 -60.5t46 -41t75 -15.5q27 0 57.5 9.5t60 25t55 37t42.5 45.5l135 -74 q-59 -88 -149.5 -143t-217.5 -55q-84 0 -140 27.5t-89 73.5t-46 107.5t-13 127.5zM254 561q23 -2 47.5 -3t46.5 -1q174 0 247 56.5t73 140.5q0 53 -41 86.5t-113 33.5q-106 0 -168.5 -83.5t-91.5 -229.5z" />
<glyph unicode="&#x436;" horiz-adv-x="1718" d="M-20 152l120 79q18 -43 53 -70.5t83 -27.5q55 0 95 24.5t68 63.5q20 27 41 78t38.5 114.5t28.5 135.5t11 141q0 180 -131 180q-92 0 -156 -75l-92 94q41 53 106.5 93t166.5 40q127 0 196.5 -75t69.5 -216q0 -23 -4 -64.5t-12 -88.5q2 0 4 -1.5t4 -1.5q63 98 118.5 212 t112.5 225h123q-31 -160 -61.5 -316.5t-59.5 -316.5q2 -2 6 -2q25 47 55.5 98t61.5 109q51 92 97 172t98.5 139t117 94t154.5 35q88 0 152.5 -39t95.5 -117l-115 -80q-20 47 -62 70t-83 23q-59 0 -94 -25t-58 -57q-20 -31 -42.5 -81t-42 -114.5t-32 -142.5t-12.5 -162 q0 -168 150 -168q43 0 92 29.5t80 75.5q29 -20 53 -40t51 -40q-39 -70 -114.5 -119t-186.5 -49q-78 0 -132 20.5t-88 59t-48.5 91t-14.5 117.5v12.5t1 21t4.5 38t7.5 64.5h-6q-59 -104 -113.5 -206t-104.5 -206h-131l125 629l-6 4q-35 -63 -60.5 -111.5t-51 -91.5t-52 -86 t-63.5 -96q-31 -53 -62.5 -101.5t-72.5 -84t-97.5 -56t-132.5 -20.5q-104 0 -161.5 44t-85.5 122z" />
<glyph unicode="&#x437;" horiz-adv-x="808" d="M-4 186l137 70q16 -53 62.5 -85t119.5 -32q109 0 162 56.5t53 148.5q0 55 -35.5 84t-95.5 29h-106l29 139h106q78 0 125 43t47 123q0 53 -41 80.5t-106 27.5q-66 0 -119 -25.5t-88 -80.5l-119 78q55 92 148.5 137t203.5 45q147 0 221 -60.5t74 -164.5q0 -33 -8 -73 t-27.5 -78t-52.5 -70t-82 -48q49 -25 77 -73.5t28 -102.5q0 -182 -111 -273t-293 -91q-117 4 -194.5 51t-114.5 145z" />
<glyph unicode="&#x438;" horiz-adv-x="909" d="M78 260q0 10 12 80t32.5 175.5t46.5 235.5t50 263h164q-23 -115 -45.5 -232.5t-40.5 -215t-30.5 -162t-12.5 -72.5q-6 -37 -4 -70t15.5 -58.5t43 -41t82.5 -15.5q43 0 82 20.5t70.5 54.5t53 78t32.5 91l123 623h161l-196 -1014h-164l22 109h-6q-57 -66 -123.5 -93.5 t-132.5 -27.5q-127 0 -189.5 73.5t-45.5 198.5z" />
<glyph unicode="&#x439;" horiz-adv-x="909" d="M78 260q0 10 12 80t32.5 175.5t46.5 235.5t50 263h164q-23 -115 -45.5 -232.5t-40.5 -215t-30.5 -162t-12.5 -72.5q-6 -37 -4 -70t15.5 -58.5t43 -41t82.5 -15.5q43 0 82 20.5t70.5 54.5t53 78t32.5 91l123 623h161l-196 -1014h-164l22 109h-6q-57 -66 -123.5 -93.5 t-132.5 -27.5q-127 0 -189.5 73.5t-45.5 198.5zM344 1432h137q-2 -20 3 -44t19.5 -44.5t38 -34t58.5 -13.5t63.5 12.5t50 32t36 44t18.5 47.5h150q-12 -47 -37 -94.5t-65 -85.5t-95 -61.5t-129 -23.5q-76 0 -126 21.5t-80 58.5t-39 85t-3 100z" />
<glyph unicode="&#x43a;" horiz-adv-x="862" d="M12 0l197 1014h164l-84 -441h104q27 0 56.5 4.5t57.5 19.5t54.5 45t50.5 79l140 293h168l-142 -295q-37 -74 -81 -124t-101 -67q66 -16 87.5 -69t29.5 -129l28 -330h-157l-19 281q-10 98 -54 127.5t-112 29.5h-137l-86 -438h-164z" />
<glyph unicode="&#x43b;" horiz-adv-x="911" d="M-55 100q45 20 78.5 43t60.5 52.5t47.5 72.5t38.5 109q18 68 34.5 146.5t32 161.5l31 166t31.5 163h606l-192 -1014h-164l82 434l82 434h-291q-43 -246 -79 -405.5t-81 -259t-109.5 -151.5t-162.5 -83q-10 33 -22.5 65t-22.5 66z" />
<glyph unicode="&#x43c;" horiz-adv-x="1122" d="M27 0l196 1012h150l106 -332l78 -264h2l201 284l219 312h158l-197 -1012h-166l123 649h-6l-170 -250l-150 -209h-104l-72 218l-73 231h-7l-122 -639h-166z" />
<glyph unicode="&#x43d;" horiz-adv-x="905" d="M25 0l196 1014h166l-84 -432h363l84 432h165l-196 -1014h-166l86 446h-363l-86 -446h-165z" />
<glyph unicode="&#x43e;" horiz-adv-x="878" d="M74 285q0 80 10 153.5t25 139.5q20 96 53 178t76 135q110 133 290 133q80 0 138.5 -24.5t96.5 -66.5t56.5 -98.5t18.5 -119.5q0 -61 -11.5 -133t-23.5 -133q-23 -111 -55.5 -196t-82 -144.5t-120 -90t-168.5 -30.5q-84 0 -141.5 24.5t-93.5 66.5t-52 95t-16 111zM229 336 q-2 -37 3.5 -73t22.5 -63.5t50 -45t86 -17.5q86 0 129 44t72 116q18 45 33.5 99.5t27 109.5t17.5 106.5t6 92.5q0 86 -44 129t-116 43q-86 0 -141 -62q-33 -35 -59.5 -94t-47.5 -135q-16 -59 -25.5 -128t-13.5 -122z" />
<glyph unicode="&#x43f;" d="M20 0l197 1014h164l-23 -113h7q57 66 123.5 94.5t134.5 28.5q57 0 103 -19.5t78 -54.5t46 -85t6 -113q0 -10 -12.5 -80t-32.5 -175.5t-46 -235.5t-50 -261h-166q23 115 46 231.5t41.5 214t31 162t12.5 72.5q6 37 3 69.5t-19.5 58.5t-48 40t-83.5 14q-88 0 -146 -61.5 t-77 -153.5l-127 -647h-162z" />
<glyph unicode="&#x440;" horiz-adv-x="886" d="M-63 -403q68 356 137 708t139 709h162l-19 -94q2 0 2 -1t2 -1q51 51 109.5 79.5t140.5 28.5q106 0 170 -65.5t64 -198.5q0 -68 -8.5 -146.5t-20.5 -144.5q-18 -100 -47 -187t-76 -152.5t-116.5 -103.5t-169.5 -38q-61 0 -117 27.5t-90 80.5q-2 0 -2 -1t-2 -1 q-23 -125 -47.5 -250t-49.5 -249h-161zM252 311q0 -72 36 -115.5t105 -43.5q49 0 92 19t76 67q29 41 51.5 116.5t38.5 159.5q10 47 14.5 89t6.5 77q0 37 -5 70.5t-21.5 59.5t-45.5 40t-76 14q-78 0 -128 -52t-70 -114q-25 -78 -43.5 -157.5t-26.5 -153.5q-2 -18 -3 -37.5 t-1 -38.5z" />
<glyph unicode="&#x441;" horiz-adv-x="780" d="M59 303q0 59 8.5 118.5t18.5 119.5q18 96 52 184t89.5 154.5t133 106.5t182.5 40q109 0 186.5 -55.5t93.5 -159.5l-151 -74q-10 68 -49 100.5t-99 32.5q-63 0 -109 -28.5t-79 -76.5t-54.5 -110.5t-33.5 -128.5q-10 -47 -16.5 -95t-6.5 -91q0 -102 37 -149.5t129 -47.5 q59 0 111.5 35t79.5 94l139 -77q-51 -88 -141 -147.5t-215 -59.5q-94 0 -153.5 27.5t-93.5 72.5t-46.5 101.5t-12.5 113.5z" />
<glyph unicode="&#x442;" horiz-adv-x="1449" d="M41 0l197 1012h163l-22 -109h6q53 59 117.5 88t134.5 29q90 0 143.5 -33t79.5 -92h2q66 61 133.5 95t153.5 34t138 -31.5t77 -82t27 -114t-11 -124.5l-133 -672h-164l131 672q6 29 4.5 60.5t-15 57t-41 42t-70.5 16.5q-51 0 -92.5 -18.5t-73 -51.5t-53 -74.5t-29.5 -91.5 l-117 -612h-166q27 141 48.5 245.5t37 184.5t26.5 138.5t19 105.5q4 37 1 70.5t-18.5 59t-45 41t-78.5 15.5q-94 0 -150.5 -70.5t-78.5 -185.5q-4 -18 -12.5 -65t-21 -107.5t-25.5 -129.5t-25.5 -129t-21.5 -107.5t-13 -65.5h-162z" />
<glyph unicode="&#x443;" horiz-adv-x="768" d="M-133 -268q106 14 191 68.5t147 156.5l-115 1057h170l37 -455q8 -88 13 -201.5t1 -214.5h6q49 90 96.5 198t91.5 221.5t85 229t76 222.5h170q-61 -182 -117.5 -336t-114 -290t-117 -258t-129.5 -236q-92 -150 -211.5 -230t-273.5 -78z" />
<glyph unicode="&#x444;" horiz-adv-x="1087" d="M66 276q0 16 1 36t3 38q6 68 18 139.5t30.5 140t45 130t61.5 108.5q59 78 148.5 122t208.5 44l82 412h163l-82 -414q119 -8 197 -62.5t100 -152.5q4 -20 6.5 -42.5t2.5 -47.5q-4 -55 -8.5 -113.5t-14.5 -115.5q-18 -115 -50 -209t-87 -162t-140 -107.5t-212 -44.5 l-72 -376h-164l72 376q-160 16 -234.5 94t-74.5 207zM227 313q0 -57 15 -88q30 -82 161 -98q39 188 76 375.5t74 376.5q-63 0 -112.5 -25t-82.5 -66q-41 -47 -69.5 -135t-44.5 -186q-12 -82 -17 -154zM567 127q53 0 96.5 17.5t75.5 48.5q47 45 77 122.5t46 165.5 q10 59 18.5 116.5t8.5 104.5q0 43 -8 70q-14 43 -53.5 72.5t-110.5 34.5z" />
<glyph unicode="&#x445;" horiz-adv-x="798" d="M-57 0l395 520q-10 20 -24.5 59t-32 87.5t-36 100.5t-35.5 100t-32.5 87t-23.5 60h182l110 -357q16 23 51 73t72 106.5t72 105.5t51 72h197l-381 -498q14 -31 40.5 -103.5t56.5 -154.5t56.5 -154.5t40.5 -103.5h-182l-117 371q-18 -23 -55 -75t-77 -110.5t-76.5 -110.5 t-55.5 -75h-196z" />
<glyph unicode="&#x446;" horiz-adv-x="937" d="M78 195.5q-4 60.5 8 128.5l133 688h164l-125 -641q-8 -43 -9 -84t13 -73t45 -50.5t86 -18.5q57 0 99.5 26t71 65.5t45 89t26.5 96.5l117 590h161l-129 -660q-6 -37 -12 -78t-1 -78.5t26.5 -68.5t68.5 -45l-71 -342h-144l47 262q-49 16 -71.5 47t-26.5 72h-2 q-25 -33 -59.5 -57.5t-73.5 -41t-79 -24.5t-75 -8q-78 0 -128 26.5t-75.5 72.5t-29.5 106.5z" />
<glyph unicode="&#x447;" horiz-adv-x="839" d="M100.5 563.5q-8.5 59.5 5.5 130.5l64 320h162l-62 -316q-16 -84 18 -131t144 -47q35 0 90.5 15.5t95.5 42.5q4 27 16.5 88t26 129.5t25.5 130t19 88.5h165l-196 -1014h-166l82 426q-49 -27 -108.5 -40t-94.5 -13q-92 0 -152.5 23.5t-93 65.5t-41 101.5z" />
<glyph unicode="&#x448;" horiz-adv-x="1421" d="M76 215.5q-2 63.5 10 124.5l133 672h164l-131 -672q-6 -29 -4 -60.5t15 -57t41 -42t71 -16.5q51 0 92 18.5t72.5 51t52 74.5t31.5 91l116 613h166q-29 -141 -49 -245.5t-35.5 -184.5t-27 -138.5t-19.5 -105.5q-4 -37 -1 -71t18.5 -59.5t45 -40.5t78.5 -15 q94 0 150.5 70.5t79.5 185.5q2 18 11 65t21.5 107.5t26 129t25.5 129t21.5 107.5t13.5 66h161l-196 -1012h-164l22 109h-6q-109 -117 -252 -117q-90 0 -143 32.5t-80 92.5h-2q-66 -61 -133.5 -95t-153.5 -34t-138 31.5t-76.5 82t-26.5 114z" />
<glyph unicode="&#x449;" horiz-adv-x="1447" d="M76 215.5q-2 63.5 10 124.5l133 672h164l-131 -672q-6 -29 -4 -60.5t15 -57t41 -42t71 -16.5q51 0 92 18.5t72.5 51t52 74.5t31.5 91l116 613h166q-29 -141 -49 -245.5t-35.5 -183.5t-27 -137.5t-19.5 -107.5q-6 -37 -4 -72t16.5 -61.5t44 -42t78.5 -15.5q96 0 155.5 73 t80.5 188l117 604h161l-129 -660q-6 -37 -12 -78t-1 -78.5t26.5 -68.5t68.5 -45l-76 -342h-139l45 264q-49 16 -70.5 46t-25.5 71h-2q-57 -66 -137 -96.5t-152 -30.5q-90 0 -138 31.5t-75 91.5h-2q-66 -61 -133.5 -95t-153.5 -34t-138 31.5t-76.5 82t-26.5 114z" />
<glyph unicode="&#x44a;" horiz-adv-x="1021" d="M80 870l29 144h430l-78 -391h198q96 0 157 -26t94.5 -65.5t46 -86t12.5 -87.5q0 -55 -20.5 -120.5t-69 -121t-128 -93t-198.5 -37.5q-80 0 -144.5 24.5t-107.5 72.5t-58.5 119.5t3.5 168.5l98 499h-264zM406 342q-16 -86 23.5 -145.5t135.5 -59.5q61 0 106.5 19.5 t74 49.5t42 67.5t13.5 74.5q0 59 -46 94t-132 35h-191z" />
<glyph unicode="&#x44b;" horiz-adv-x="1200" d="M72.5 202.5q-15.5 71.5 3.5 168.5l127 643h166l-78 -391h198q96 0 156 -26t93.5 -65.5t46 -86t12.5 -87.5q0 -55 -20.5 -120.5t-67.5 -121t-126 -93t-198 -37.5q-80 0 -145.5 24.5t-108.5 72.5t-58.5 119.5zM238 342q-16 -86 23.5 -145.5t133.5 -59.5q63 0 107.5 19.5 t73 49.5t42 67.5t13.5 74.5q0 59 -46 94t-134 35h-189zM836 0l198 1014h166l-196 -1014h-168z" />
<glyph unicode="&#x44c;" horiz-adv-x="868" d="M87 202.5q-15 71.5 3 168.5l127 643h166l-78 -391h199q96 0 155.5 -26t93 -65.5t46 -86t12.5 -87.5q0 -55 -20.5 -120.5t-67.5 -121t-126 -93t-198 -37.5q-80 0 -145.5 24.5t-108.5 72.5t-58 119.5zM252 342q-16 -86 24 -145.5t134 -59.5q63 0 107 19.5t72.5 49.5 t42 67.5t13.5 74.5q0 59 -46 94t-134 35h-189z" />
<glyph unicode="&#x44d;" horiz-adv-x="800" d="M4 186l141 70q14 -53 60.5 -85t103.5 -32q125 0 184.5 82t81.5 221h-342q8 35 14.5 70t12.5 70h340q6 37 8 66.5t2 51.5q0 78 -41 122t-123 44q-53 0 -105 -25.5t-87 -74.5l-125 84q49 78 127 127t197 49q164 0 241.5 -84t77.5 -225q0 -123 -19.5 -253t-69.5 -235.5 t-139 -173t-231 -67.5q-119 0 -201.5 52t-107.5 146z" />
<glyph unicode="&#x44e;" horiz-adv-x="1175" d="M16 0l197 1012h166l-84 -430h133q49 221 147.5 332.5t262.5 111.5q127 0 199.5 -65.5t88.5 -161.5q6 -39 6.5 -86t-6 -96.5t-14.5 -96.5t-16 -86q-45 -209 -141.5 -327.5t-274.5 -118.5q-84 0 -140.5 26.5t-91 70.5t-48 100.5t-11.5 117.5q2 39 4 66.5t10 76.5h-135 l-86 -446h-166zM545 334q0 -37 4 -72t19.5 -62.5t45 -45t78.5 -17.5q47 0 81 19.5t63 52.5q27 31 50 87t41.5 123.5t30 137.5t15.5 129q4 86 -34 139.5t-116 53.5q-47 0 -81.5 -17.5t-63.5 -52.5t-53.5 -98.5t-42 -135t-27.5 -138t-10 -103.5z" />
<glyph unicode="&#x44f;" horiz-adv-x="872" d="M-12 0l98 256q25 63 62.5 128t103.5 91q-66 35 -91.5 87t-25.5 120q0 78 27.5 139.5t77 103.5t116 64.5t144.5 22.5h383l-191 -1012h-164q20 104 41 210.5t43 211.5h-166q-57 0 -106 -32t-86 -124l-102 -266h-164zM297 682q0 -57 40 -90t114 -33h188q14 78 28.5 153.5 t30.5 153.5h-159q-41 0 -84 -6t-78 -26.5t-57.5 -56.5t-22.5 -95z" />
<glyph unicode="&#x451;" horiz-adv-x="847" d="M68 324q0 106 21.5 230t74.5 228.5t141 174t223 69.5q141 0 221 -66.5t80 -183.5q0 -82 -29.5 -148.5t-91 -114.5t-155.5 -73.5t-223 -25.5q-23 0 -50.5 1t-52.5 3q-6 -43 -6 -86q0 -37 7.5 -72t23.5 -60.5t46 -41t75 -15.5q27 0 57.5 9.5t60 25t55 37t42.5 45.5l135 -74 q-59 -88 -149.5 -143t-217.5 -55q-84 0 -140 27.5t-89 73.5t-46 107.5t-13 127.5zM254 561q23 -2 47.5 -3t46.5 -1q174 0 247 56.5t73 140.5q0 53 -41 86.5t-113 33.5q-106 0 -168.5 -83.5t-91.5 -229.5zM340 1229l35 172h157l-32 -172h-160zM678 1229l35 172h157l-32 -172 h-160z" />
<glyph unicode="&#x452;" horiz-adv-x="909" d="M31 0l227 1174h-111l27 131h109l36 182h164l-34 -182h378l-26 -131h-379l-55 -285h6q111 123 264 123q68 0 114 -23.5t73.5 -63.5t38.5 -94.5t11 -113.5q0 -70 -8 -146.5t-23.5 -151.5t-37 -145.5t-49.5 -126.5q-43 -84 -129 -141t-238 -57h-23.5t-25.5 2l29 141 q76 -4 127 15.5t84.5 59.5t55 98.5t38.5 133.5q6 31 13 69t12.5 72.5t8.5 64.5t3 44q0 41 -5.5 78t-21.5 64.5t-47 44t-82 16.5q-61 0 -105 -30.5t-74 -79t-48.5 -106.5t-30.5 -114l-102 -522h-164z" />
<glyph unicode="&#x453;" horiz-adv-x="823" d="M39 223q0 78 25.5 136.5t71.5 101.5t112.5 74.5t148.5 56.5q119 35 180.5 74t61.5 106q0 51 -38 74.5t-97 23.5q-70 0 -130.5 -28.5t-103.5 -85.5l-125 80q59 90 147.5 139t211.5 51q61 0 116.5 -13.5t96.5 -41t65.5 -71.5t24.5 -105q0 -70 -25.5 -122t-71.5 -93 t-109.5 -72t-141.5 -55q-51 -16 -97.5 -33t-81 -39.5t-55 -54t-20.5 -78.5q0 -109 164 -109q59 0 124.5 29t108.5 82l121 -84q-63 -90 -151.5 -135t-225.5 -45q-66 0 -122 14t-97 43t-64.5 74t-23.5 106zM498 1171l213 355l145 -51l-266 -342z" />
<glyph unicode="&#x454;" horiz-adv-x="800" d="M59 303q0 59 8.5 118.5t18.5 119.5q18 96 52 184t89.5 154.5t133 106.5t182.5 40q109 0 186.5 -55.5t93.5 -159.5l-151 -74q-10 68 -49 100.5t-99 32.5q-57 0 -100 -23.5t-75 -63.5t-54.5 -93t-36.5 -110h350l-26 -142h-351l-10 -96q-4 -98 32 -148.5t138 -50.5 q59 0 111.5 35t79.5 94l139 -77q-51 -88 -141 -147.5t-215 -59.5q-94 0 -153.5 27.5t-93.5 72.5t-46.5 101.5t-12.5 113.5z" />
<glyph unicode="&#x455;" horiz-adv-x="821" d="M14 201l138 73q25 -61 72.5 -97t129.5 -36q39 0 78 11.5t67.5 34t47 56t18.5 76.5q0 35 -17.5 55.5t-47 35t-68.5 23.5t-84 22q-104 35 -157.5 85t-53.5 146q0 78 29 141.5t78 107.5t116.5 67.5t147.5 23.5q119 0 197.5 -52t107.5 -145l-143 -75q-18 57 -60.5 86.5 t-120.5 29.5q-84 0 -136 -46t-52 -115q0 -49 49 -73t135 -46q55 -14 100.5 -32.5t78 -47.5t51 -70t18.5 -96q0 -86 -29.5 -152.5t-82 -111.5t-124 -68.5t-157.5 -23.5q-123 0 -211 54t-115 159z" />
<glyph unicode="&#x456;" horiz-adv-x="399" d="M35 0l196 1014h164l-196 -1014h-164zM279 1260l32 165h164l-33 -165h-163z" />
<glyph unicode="&#x457;" horiz-adv-x="399" d="M35 0l196 1014h164l-196 -1014h-164zM90 1214l35 172h158l-33 -172h-160zM428 1214l35 172h158l-33 -172h-160z" />
<glyph unicode="&#x458;" horiz-adv-x="423" d="M-186 -408l28 154q6 0 23.5 -1t21.5 1q66 2 96.5 44t45.5 112l217 1112h166l-226 -1149q-10 -55 -32.5 -105.5t-59.5 -87.5t-88 -59.5t-119 -22.5h-37.5t-35.5 2zM293 1260l33 165h166l-33 -165h-166z" />
<glyph unicode="&#x459;" horiz-adv-x="1314" d="M-43 104q51 25 92 51.5t72 69.5t54.5 108.5t41.5 168.5l98 512h547l-78 -391h199q96 0 155.5 -26t93.5 -65.5t46 -86t12 -87.5q0 -55 -20.5 -120.5t-68.5 -121t-127 -93t-197 -37.5q-80 0 -144.5 24.5t-107.5 72.5t-58.5 119.5t2.5 168.5l97 495h-226l-69 -372 q-25 -127 -58.5 -216.5t-79 -150.5t-103.5 -98t-132 -58zM729 342q-16 -86 24 -145.5t136 -59.5q61 0 106 19.5t74 49.5t42 67.5t13 74.5q0 59 -46 94t-134 35h-188z" />
<glyph unicode="&#x45a;" horiz-adv-x="1361" d="M23 0l196 1014h166l-76 -391h326l78 391h166l-78 -391h198q96 0 157 -26t94.5 -65.5t46 -86t12.5 -87.5q0 -55 -20.5 -120.5t-69 -121t-127 -93t-197.5 -37.5q-80 0 -145.5 24.5t-108.5 72.5t-58.5 119.5t3.5 168.5l20 106h-327l-93 -477h-163zM748 342 q-16 -86 23.5 -145.5t133.5 -59.5q63 0 107.5 19.5t73 49.5t42 67.5t13.5 74.5q0 59 -46 94t-132 35h-191z" />
<glyph unicode="&#x45b;" horiz-adv-x="909" d="M27 0l225 1174h-111l27 131h111l34 184h164l-37 -184h381l-26 -131h-379l-54 -275h7q59 66 125.5 95.5t134.5 29.5q115 0 181.5 -73.5t47.5 -211.5q0 -10 -12 -77.5t-31.5 -171t-44.5 -231.5t-49 -259h-166q23 115 46.5 231.5t42 214t30.5 162t12 72.5q10 74 -17.5 127 t-119.5 53q-88 0 -151.5 -58.5t-82.5 -154.5l-127 -647h-161z" />
<glyph unicode="&#x45c;" horiz-adv-x="862" d="M12 0l197 1014h164l-84 -441h104q27 0 56.5 4.5t57.5 19.5t54.5 45t50.5 79l140 293h168l-142 -295q-37 -74 -81 -124t-101 -67q66 -16 87.5 -69t29.5 -129l28 -330h-157l-19 281q-10 98 -54 127.5t-112 29.5h-137l-86 -438h-164zM487 1171l213 355l146 -51l-266 -342z " />
<glyph unicode="&#x45e;" horiz-adv-x="768" d="M-133 -268q106 14 191 68.5t147 156.5l-115 1057h170l37 -455q8 -88 13 -201.5t1 -214.5h6q49 90 96.5 198t91.5 221.5t85 229t76 222.5h170q-61 -182 -117.5 -336t-114 -290t-117 -258t-129.5 -236q-92 -150 -211.5 -230t-273.5 -78zM238 1432h137q-2 -20 3 -44 t19.5 -44.5t38 -34t58.5 -13.5t63.5 12.5t50 32t35.5 44t19 47.5h149q-12 -47 -36.5 -94.5t-64.5 -85.5t-95.5 -61.5t-129.5 -23.5q-76 0 -126 21.5t-79.5 58.5t-39 85t-2.5 100z" />
<glyph unicode="&#x45f;" horiz-adv-x="909" d="M78 260q0 10 12 80t32.5 175.5t46.5 235.5t50 263h164q-23 -115 -45.5 -232.5t-40.5 -215t-30.5 -162t-12.5 -72.5q-6 -37 -4 -70t15.5 -58.5t43 -41t82.5 -15.5q43 0 82 20.5t70.5 54.5t53 78t32.5 91l123 623h161l-196 -1014h-164l22 109h-6q-57 -66 -123.5 -93.5 t-132.5 -27.5q-127 0 -189.5 73.5t-45.5 198.5zM268 -375l68 299l158 31l-80 -330h-146z" />
<glyph unicode="&#x490;" horiz-adv-x="903" d="M51 0l271 1425h569l57 250h156l-88 -409h-557l-240 -1266h-168z" />
<glyph unicode="&#x491;" horiz-adv-x="761" d="M29 0l192 1014h471l47 231h150l-76 -377h-455l-165 -868h-164z" />
<glyph unicode="&#x4d9;" horiz-adv-x="847" d="M68 238q0 82 33.5 148.5t96 114.5t150.5 74.5t199 26.5q29 0 57.5 -2t57.5 -6q12 51 12 108q0 68 -31 117t-115 49q-55 0 -118.5 -30.5t-100.5 -83.5l-125 71q51 92 141.5 146.5t215.5 54.5q80 0 135 -23.5t90 -66.5t50 -101.5t15 -127.5q0 -119 -22.5 -246t-76.5 -232.5 t-142 -173t-219 -67.5q-141 0 -222 66.5t-81 183.5zM229 260q0 -53 42 -88t112 -35q113 0 169 84t85 230q-27 4 -52.5 6t-49.5 2q-68 0 -123.5 -15.5t-96.5 -41t-63.5 -62.5t-22.5 -80z" />
<glyph unicode="&#x2000;" horiz-adv-x="921" />
<glyph unicode="&#x2001;" horiz-adv-x="1843" />
<glyph unicode="&#x2002;" horiz-adv-x="921" />
<glyph unicode="&#x2003;" horiz-adv-x="1843" />
<glyph unicode="&#x2004;" horiz-adv-x="614" />
<glyph unicode="&#x2005;" horiz-adv-x="460" />
<glyph unicode="&#x2006;" horiz-adv-x="307" />
<glyph unicode="&#x2007;" horiz-adv-x="307" />
<glyph unicode="&#x2008;" horiz-adv-x="230" />
<glyph unicode="&#x2009;" horiz-adv-x="368" />
<glyph unicode="&#x200a;" horiz-adv-x="102" />
<glyph unicode="&#x2010;" horiz-adv-x="755" d="M117 494l28 145h562l-29 -145h-561z" />
<glyph unicode="&#x2011;" horiz-adv-x="755" d="M117 494l28 145h562l-29 -145h-561z" />
<glyph unicode="&#x2012;" horiz-adv-x="755" d="M117 494l28 145h562l-29 -145h-561z" />
<glyph unicode="&#x2013;" horiz-adv-x="1013" d="M49 471l31 156h932l-31 -156h-932z" />
<glyph unicode="&#x2014;" horiz-adv-x="2048" d="M31 471l30 156h1967l-31 -156h-1966z" />
<glyph unicode="&#x2018;" horiz-adv-x="456" d="M244 1030l41 209l151 234h96l-102 -230h51l-43 -213h-194z" />
<glyph unicode="&#x2019;" horiz-adv-x="456" d="M244 1030l102 232h-51l43 213h194l-40 -209l-150 -236h-98z" />
<glyph unicode="&#x201a;" horiz-adv-x="456" d="M-12 -238l102 230h-51l41 213h194l-41 -209l-149 -234h-96z" />
<glyph unicode="&#x201c;" horiz-adv-x="614" d="M193 1030l40 209l150 234h98l-102 -230h51l-43 -213h-194zM459 1030l41 209l151 234h97l-103 -230h51l-43 -213h-194z" />
<glyph unicode="&#x201d;" horiz-adv-x="614" d="M203 1030l104 232h-51l41 213h197l-41 -209l-152 -236h-98zM471 1030l102 232h-51l43 213h195l-41 -209l-152 -236h-96z" />
<glyph unicode="&#x201e;" horiz-adv-x="722" d="M-12 -236l102 230h-51l43 213h194l-40 -209l-152 -234h-96zM254 -236l102 230h-51l43 213h195l-41 -209l-152 -234h-96z" />
<glyph unicode="&#x2020;" horiz-adv-x="835" d="M109 807l26 139h307l90 459h152l-90 -459h307l-27 -139h-307l-225 -1159h-152l226 1159h-307z" />
<glyph unicode="&#x2021;" horiz-adv-x="843" d="M-2 229l27 140h309l86 438h-309l26 139h309l91 459h153l-90 -459h311l-26 -139h-312l-86 -438h312l-27 -140h-311l-113 -581h-153l112 581h-309z" />
<glyph unicode="&#x2022;" horiz-adv-x="837" d="M160 549q0 53 20.5 101t56 84t83 56.5t102.5 20.5t103 -20.5t84 -56.5t56.5 -84t20.5 -101t-20.5 -101.5t-56.5 -84t-84 -56t-103 -20.5t-102.5 20.5t-83 56t-56 84t-20.5 101.5z" />
<glyph unicode="&#x2026;" horiz-adv-x="1449" d="M57 0l39 207h195l-39 -207h-195zM539 0l39 207h194l-39 -207h-194zM1030 0l39 207h195l-39 -207h-195z" />
<glyph unicode="&#x202f;" horiz-adv-x="368" />
<glyph unicode="&#x2030;" horiz-adv-x="1859" d="M125 -35l1049 1495h126l-1050 -1495h-125zM125 805l78 407q20 100 84.5 160t163.5 60q51 0 95 -17.5t72.5 -50.5t41 -77t2.5 -97l-76 -408q-20 -102 -77.5 -160.5t-168.5 -58.5q-47 0 -91 16.5t-76 47t-46 76t-2 102.5zM254 795q-10 -47 12.5 -81t79.5 -34q53 0 78 30.5 t33 71.5l80 420q10 43 -17.5 77t-77.5 34q-47 0 -74.5 -29t-35.5 -72zM756 231l78 408q20 100 84.5 159.5t162.5 59.5q51 0 95.5 -17.5t73 -50t41 -76.5t1.5 -98l-75 -407q-20 -102 -78 -160.5t-168 -58.5q-47 0 -91 16.5t-76 47t-46.5 75.5t-1.5 102zM885 221 q-10 -47 12.5 -81t79.5 -34q53 0 77.5 31t32.5 72l80 420q10 43 -17.5 76.5t-76.5 33.5q-47 0 -74.5 -28.5t-35.5 -71.5zM1280 231l78 408q20 100 84.5 159.5t163.5 59.5q51 0 95 -17.5t72.5 -50t41 -76.5t2.5 -98l-76 -407q-20 -102 -77.5 -160.5t-168.5 -58.5 q-47 0 -91 16.5t-76 47t-46 75.5t-2 102zM1409 221q-10 -47 12.5 -81t79.5 -34q53 0 78 31t33 72l80 420q10 43 -17.5 76.5t-77.5 33.5q-47 0 -74.5 -28.5t-35.5 -71.5z" />
<glyph unicode="&#x2039;" horiz-adv-x="571" d="M47 475l315 381h160l-315 -385l166 -377h-158z" />
<glyph unicode="&#x203a;" horiz-adv-x="571" d="M27 94l315 385l-166 377h158l168 -381l-316 -381h-159z" />
<glyph unicode="&#x2044;" horiz-adv-x="331" d="M-428 -35l1049 1495h127l-1051 -1495h-125z" />
<glyph unicode="&#x205f;" horiz-adv-x="460" />
<glyph unicode="&#x20ac;" d="M51 547l23 106h78l22 121h-80l23 105h78l20 100q18 90 50 173t86.5 145.5t132 100.5t186.5 38q160 0 241.5 -80t94.5 -209l-168 -53q-4 78 -49.5 132t-126.5 54q-66 0 -113 -25.5t-80 -67.5t-53.5 -94.5t-30.5 -105.5l-20 -108h364l-20 -105h-365l-22 -121h364l-20 -106 h-365l-27 -133q-10 -55 -8 -104.5t21.5 -87.5t57.5 -59.5t97 -21.5q90 0 153.5 51.5t102.5 139.5l158 -58q-53 -135 -163.5 -210.5t-264.5 -75.5q-102 0 -172 32.5t-108.5 91t-48 138.5t9.5 174l22 123h-80z" />
<glyph unicode="&#x2122;" horiz-adv-x="1550" d="M76 1307v118h555v-118h-213v-699h-129v699h-213zM733 606v817h127l227 -508l224 508h125v-817h-129q0 123 -1 246t-1 246q-8 -12 -15.5 -24.5t-13.5 -24.5l-139 -310h-109l-166 361h-2v-494h-127z" />
<glyph unicode="&#x2202;" horiz-adv-x="868" d="M57 299q0 137 39 250t101.5 192.5t141.5 123.5t157 44q63 0 121.5 -25.5t109.5 -97.5q18 111 18 201q0 166 -58 257t-177 91q-33 0 -58.5 -4t-60.5 -14l29 139q63 20 131 21q92 0 155.5 -38t103.5 -102.5t58.5 -151.5t18.5 -188q-6 -233 -56.5 -421.5t-128 -320.5 t-177 -203.5t-201.5 -71.5q-127 0 -197 85t-70 234zM201 338q0 -102 41 -156.5t114 -54.5q63 0 117.5 44t96.5 112.5t74 154.5t50 170q-49 96 -106.5 130t-108.5 34q-61 0 -112.5 -43t-88 -107.5t-57 -140t-20.5 -143.5z" />
<glyph unicode="&#x220f;" horiz-adv-x="1075" d="M16 -170l312 1595h811l-312 -1595h-172l283 1446h-469l-283 -1446h-170z" />
<glyph unicode="&#x2211;" horiz-adv-x="835" d="M-63 -166l28 150l400 645l-150 655l29 141h719l-31 -155h-533l152 -641l-397 -635h555l-31 -160h-741z" />
<glyph unicode="&#x221a;" horiz-adv-x="927" d="M100 750l258 94l82 -742q20 61 66.5 182.5t104 269.5t121 313t120.5 313.5t102 269.5t66 182h135l-696 -1798h-123l-96 844q-6 -4 -24.5 -11.5t-39 -14.5t-38 -13t-23.5 -8z" />
<glyph unicode="&#x221e;" horiz-adv-x="1433" d="M86 565q0 61 23.5 116.5t63.5 97.5t95 66.5t121 24.5q55 0 103.5 -20.5t90.5 -52t76.5 -71.5t61.5 -79q35 45 70.5 86t77.5 72t90.5 48t107.5 17q63 0 115.5 -22.5t90.5 -63.5t58.5 -96t20.5 -123q0 -61 -22.5 -117.5t-62.5 -97.5t-95.5 -65.5t-120.5 -24.5 q-51 0 -97.5 19.5t-87.5 50t-76.5 69.5t-68.5 80q-37 -43 -73 -83t-78 -70.5t-90 -48t-107 -17.5q-61 0 -114.5 22.5t-91.5 62.5t-59.5 96.5t-21.5 123.5zM209 565q0 -80 51 -130t125 -50q82 0 145.5 51t108.5 127q-18 31 -45 63.5t-58.5 59.5t-68.5 43t-78 16 q-37 0 -69.5 -14t-57 -38.5t-39 -57.5t-14.5 -70zM799 565q57 -72 114.5 -126t141.5 -54q37 0 68.5 14.5t55 39t37 57t13.5 69.5q0 78 -49 129t-121 51q-82 0 -141.5 -51t-118.5 -129z" />
<glyph unicode="&#x222b;" horiz-adv-x="647" d="M-156 -287l37 115q29 -6 47.5 -8t34.5 -2q39 0 72 15t60.5 54t52 106t49.5 169q29 127 65.5 321.5t87.5 440.5q29 152 62 284q47 195 123.5 285t212.5 90q29 0 65.5 -6t67.5 -16l-37 -119q-53 12 -86 12q-41 0 -74 -16.5t-59.5 -55.5t-50 -104.5t-46.5 -163.5 q-14 -61 -31.5 -147t-36 -181.5t-36.5 -193.5t-35 -184q-16 -90 -34.5 -178.5t-41.5 -161.5q-29 -104 -60.5 -175t-72.5 -116t-93 -64.5t-120 -19.5q-29 0 -61.5 5t-61.5 15z" />
<glyph unicode="&#x2248;" d="M39 395q57 82 124.5 126t143.5 44q49 0 89 -17.5t78 -39t75 -38.5t78 -17t76.5 21.5t76.5 76.5l94 -64q-51 -86 -114.5 -132t-147.5 -46q-41 0 -80.5 17.5t-80.5 38t-82 38t-84 17.5q-47 0 -78 -24.5t-78 -71.5zM94 702q57 82 125 126t143 44q49 0 89.5 -17t78 -38.5 t74.5 -39t78 -17.5t77 21.5t77 76.5l94 -63q-51 -86 -114.5 -132.5t-147.5 -46.5q-41 0 -81 17.5t-81 38t-82 38t-84 17.5q-47 0 -78 -24.5t-78 -71.5z" />
<glyph unicode="&#x2260;" d="M-4 127l205 233h-174l26 134h266l195 221h-418l25 133h512l201 227h139l-203 -227h174l-24 -133h-267l-196 -221h420l-27 -134h-510l-209 -235z" />
<glyph unicode="&#x2264;" horiz-adv-x="931" d="M-27 2l25 129h813l-25 -129h-813zM63 532l25 125l875 308l-27 -136l-682 -233l590 -238l-27 -139z" />
<glyph unicode="&#x2265;" horiz-adv-x="931" d="M-8 2l24 129h813l-24 -129h-813zM27 219l26 137l682 238l-590 233l27 138l754 -310l-25 -125z" />
<glyph unicode="&#x25ca;" horiz-adv-x="690" d="M35 610l215 611h186l217 -611l-215 -608h-186zM176 606h4l164 -471h6l162 471l-168 475h-6z" />
<glyph unicode="&#x25fc;" horiz-adv-x="1013" d="M0 0v1014h1014v-1014h-1014z" />
</font>
</defs>
</svg>
